P2
# CREATOR: The GIMP's PNM Filter Version 1.0
64 64
255
28
38
41
62
51
58
48
56
70
139
122
122
139
123
138
144
146
148
155
163
165
160
156
156
97
105
109
105
105
108
101
89
97
99
101
100
98
98
101
103
97
112
125
125
121
121
125
127
122
124
91
77
58
68
58
68
69
61
43
25
24
35
40
36
28
32
36
52
53
60
61
69
70
140
128
126
139
125
138
141
149
149
152
158
160
156
155
157
106
105
102
100
101
103
97
89
83
90
99
103
102
100
99
99
116
121
122
118
117
122
128
130
133
128
93
69
61
70
62
62
64
51
32
19
21
30
35
34
39
35
42
47
62
64
75
80
68
137
134
129
139
131
139
138
150
149
150
155
156
153
153
155
131
121
112
111
112
110
107
107
85
93
100
103
101
100
102
105
138
136
129
121
120
126
129
128
133
133
110
70
67
66
67
62
59
41
22
17
21
26
29
31
46
38
50
49
72
67
80
78
71
133
139
134
141
138
142
138
147
147
151
158
158
153
149
150
136
124
116
116
112
105
106
113
108
108
106
101
98
102
113
121
147
147
141
132
128
127
126
122
124
135
127
76
70
58
69
66
45
27
16
23
33
36
38
42
41
36
53
57
83
76
87
83
91
138
148
143
146
144
143
137
141
144
152
162
162
154
146
144
135
128
125
125
117
106
109
119
121
116
109
103
103
111
124
134
142
145
141
131
122
121
123
123
127
129
113
63
62
54
64
60
32
21
19
34
49
53
55
58
42
45
62
76
96
98
106
108
119
144
154
152
152
148
141
137
138
141
149
159
160
152
145
143
131
131
131
129
122
116
117
122
117
113
109
109
115
123
130
134
132
133
127
114
107
110
117
121
127
109
74
41
51
54
54
48
45
40
40
47
55
56
54
53
60
66
73
93
99
111
116
127
134
139
149
153
154
149
138
139
140
139
142
148
149
146
145
147
131
131
129
125
126
129
127
122
118
112
108
112
123
131
132
130
126
124
116
105
100
101
102
100
92
79
47
41
46
55
45
47
56
57
55
52
51
53
52
47
76
82
77
96
89
107
109
126
135
128
139
149
152
148
137
142
144
138
135
137
139
141
146
153
159
157
150
146
154
165
160
146
127
117
109
111
123
132
133
129
125
122
115
107
104
99
88
76
47
55
43
58
49
53
40
56
47
54
54
48
49
58
62
59
83
81
80
84
100
117
124
123
127
139
147
147
149
152
146
135
142
142
134
132
137
136
139
154
151
150
150
152
155
157
155
154
151
171
155
162
161
137
134
117
126
119
102
106
122
100
65
60
53
62
50
37
39
33
34
55
50
54
53
48
49
55
56
53
98
97
97
102
116
131
138
137
129
134
141
146
151
154
151
144
132
139
136
132
136
136
137
148
153
155
157
159
160
161
162
163
158
156
158
161
163
147
125
129
119
140
123
84
69
63
58
62
61
64
47
35
38
30
31
55
43
47
48
46
49
56
59
57
112
112
112
115
127
141
148
148
168
160
154
154
151
142
131
126
127
146
150
143
145
146
145
150
158
150
145
149
160
165
161
153
174
151
163
161
167
158
118
133
130
139
110
64
51
59
58
53
59
54
32
24
30
21
22
50
46
51
55
58
64
73
78
79
115
116
115
115
125
141
153
157
177
162
152
153
151
139
128
126
127
154
163
155
155
157
154
154
145
143
143
148
156
165
170
172
193
174
169
165
177
171
132
126
126
113
90
74
72
71
62
55
53
44
22
17
26
17
18
47
51
55
60
67
75
85
92
95
113
114
113
114
124
144
163
172
176
160
149
149
147
135
125
122
125
153
164
157
157
158
153
152
132
146
160
162
161
169
191
211
200
202
170
167
183
177
154
115
94
100
105
93
69
58
62
68
57
51
30
23
31
21
20
46
53
54
57
64
71
78
85
90
112
115
116
117
127
149
171
184
175
165
157
154
150
141
131
126
132
154
162
158
160
158
153
154
151
152
156
165
177
189
196
199
193
210
171
163
176
171
159
109
89
104
110
82
48
48
61
57
62
61
39
23
26
18
16
36
63
60
60
66
72
77
85
92
112
117
118
117
122
139
159
170
147
150
153
155
158
161
158
153
144
156
160
160
164
159
154
160
163
159
162
179
201
211
206
196
202
212
192
173
174
170
149
124
119
101
87
66
44
50
59
47
57
63
39
12
10
8
9
26
62
57
58
66
74
82
94
105
110
116
117
113
113
123
137
145
144
154
157
153
152
155
150
141
149
155
155
158
163
156
151
161
142
167
198
215
219
223
234
246
226
222
225
195
184
179
145
149
140
91
71
72
53
43
54
60
53
63
38
4
1
5
10
26
44
40
42
54
67
79
95
109
110
115
120
119
112
111
125
141
139
162
153
153
163
154
151
154
151
160
167
144
160
150
157
153
151
190
218
215
213
229
243
245
245
255
249
182
186
188
164
127
141
78
91
83
76
46
43
57
53
56
38
8
1
20
32
28
43
43
45
43
42
93
99
99
110
111
118
127
128
119
108
104
122
141
155
155
156
155
154
165
155
152
159
152
167
147
158
173
181
198
207
206
212
231
242
241
236
245
243
189
193
192
168
138
139
84
91
80
84
73
63
51
55
54
38
16
12
26
35
32
36
38
42
43
42
92
95
94
113
109
108
113
114
110
107
106
112
110
142
138
129
139
133
147
148
135
140
151
162
137
151
187
197
193
189
195
214
236
246
245
244
240
231
185
188
191
179
170
137
103
105
88
87
88
75
46
57
50
36
24
23
29
32
31
33
35
41
45
45
91
92
91
106
104
101
95
86
83
95
110
112
90
133
131
120
137
125
139
136
125
128
145
152
132
149
192
196
188
186
199
218
232
239
242
244
237
228
198
198
198
182
184
144
129
131
113
90
83
76
53
56
44
32
28
29
28
27
28
38
38
44
49
47
91
91
91
94
97
99
96
83
71
69
74
78
65
122
129
116
127
116
138
132
131
131
145
148
143
157
195
194
197
207
219
224
222
224
229
227
230
236
232
228
214
175
169
158
143
137
133
97
79
76
63
52
38
28
28
30
28
27
30
44
42
45
50
47
89
90
92
97
91
88
92
92
83
70
62
53
58
111
127
114
108
104
134
129
136
133
148
148
155
164
196
189
204
224
235
232
224
224
229
227
230
235
241
235
225
177
170
168
145
124
132
95
76
73
61
51
40
29
24
25
26
29
32
46
42
45
51
48
88
88
93
96
87
80
83
86
82
75
71
67
66
80
102
115
109
111
136
128
132
127
153
153
161
165
198
193
210
227
234
232
230
230
231
233
232
226
231
227
231
186
182
181
166
134
136
85
65
68
58
57
48
33
18
12
15
20
22
44
40
47
57
55
93
92
96
80
82
86
85
75
62
56
58
66
43
13
43
94
103
110
125
131
130
125
161
162
167
166
204
210
221
228
226
226
228
227
221
223
226
223
234
232
239
189
180
197
200
167
153
79
56
67
63
64
58
38
13
0
1
7
7
42
40
50
64
63
100
97
100
92
95
94
82
64
51
49
53
43
21
21
25
24
0
98
89
105
107
138
175
159
177
140
224
222
221
220
220
222
224
224
224
225
219
220
226
223
213
209
213
196
211
211
213
85
90
74
63
55
70
59
18
0
0
7
3
46
68
68
66
81
85
87
104
87
93
94
81
61
46
44
48
53
26
22
20
15
13
97
95
88
104
128
148
143
167
154
213
225
222
222
227
233
232
225
217
224
217
214
220
225
221
211
204
214
224
220
211
98
85
71
71
64
64
54
37
28
34
46
52
47
67
68
64
77
84
91
109
90
94
92
78
59
47
47
52
54
26
23
20
11
39
86
89
97
89
104
143
152
137
157
221
218
218
224
238
252
254
243
231
225
224
222
220
223
223
216
207
207
215
209
190
118
98
91
99
79
70
69
77
75
61
52
54
46
65
70
68
74
79
85
98
88
86
79
68
56
50
50
53
42
20
26
26
14
61
68
71
70
111
122
110
128
146
193
189
211
215
226
244
255
255
255
245
234
241
238
224
216
219
221
218
221
224
203
163
129
109
95
88
94
84
84
92
87
64
44
37
46
62
72
71
69
68
70
74
66
63
60
58
57
52
44
37
36
21
28
29
17
69
55
60
56
100
116
107
127
140
201
186
216
221
231
243
252
254
250
246
254
252
238
221
215
220
220
213
215
216
184
137
134
129
107
80
96
92
85
77
73
71
67
62
52
58
65
61
54
55
59
57
44
46
51
59
62
55
40
27
41
27
27
25
17
60
52
62
67
65
94
137
152
126
186
219
223
227
234
242
249
254
255
254
255
248
225
215
221
223
209
190
185
185
157
125
132
140
121
91
87
95
94
83
83
91
91
81
63
56
54
47
37
45
55
51
38
42
48
54
54
49
40
34
40
31
24
21
18
42
48
62
49
69
110
132
136
147
199
217
228
227
230
238
248
255
255
254
254
238
224
223
225
213
192
175
186
180
161
148
135
134
118
105
93
102
105
100
99
99
88
72
71
56
52
45
34
41
49
37
38
41
42
39
35
34
39
43
33
29
22
21
21
28
43
55
51
55
102
138
133
139
183
221
235
228
224
229
240
245
240
233
233
232
236
239
225
198
179
174
178
171
167
179
153
148
144
153
114
108
101
95
94
90
80
69
74
58
58
54
40
42
41
19
40
40
37
31
33
40
45
46
36
22
16
23
25
24
38
59
57
54
55
77
154
180
164
182
197
225
240
227
252
244
240
236
227
229
231
219
205
205
196
172
178
176
178
170
149
142
146
144
107
110
111
110
108
100
85
69
68
70
54
47
42
37
36
19
17
18
17
14
15
22
25
25
40
28
21
22
23
26
40
56
49
55
55
50
179
175
174
169
184
191
197
197
237
234
238
245
230
226
226
221
213
211
200
177
174
175
174
160
145
148
148
132
109
110
110
109
110
109
100
89
79
58
48
51
51
38
20
16
9
12
12
11
13
20
23
22
37
36
33
30
30
34
40
45
48
50
49
95
117
175
183
165
204
191
187
196
243
238
239
250
236
225
225
227
221
215
204
185
172
174
170
151
141
151
147
120
111
111
108
106
109
114
112
106
98
49
45
52
56
42
9
23
10
13
13
11
15
24
29
29
31
42
48
46
44
45
40
31
49
39
99
98
97
123
169
184
199
190
186
193
240
232
227
230
243
231
231
234
223
211
202
190
174
172
168
153
140
143
138
117
113
112
108
104
107
113
114
111
107
50
52
49
53
48
12
36
1
2
0
0
4
15
24
27
35
49
57
53
50
50
43
30
34
65
119
89
108
105
99
208
176
180
183
185
231
233
233
233
248
240
242
238
218
202
198
192
178
169
168
163
143
131
128
124
116
116
112
107
108
114
116
114
91
52
63
52
51
53
19
36
0
0
0
0
0
14
25
30
47
54
55
49
46
48
47
42
38
61
92
116
94
119
78
182
172
181
185
180
223
230
240
247
249
246
247
236
210
197
197
192
177
167
170
169
145
125
125
130
120
120
116
109
108
113
115
114
65
51
65
57
53
50
21
23
0
2
2
2
9
23
34
38
51
52
51
47
44
45
47
48
57
27
75
100
102
100
131
136
170
170
172
172
210
207
218
236
246
246
245
227
204
200
201
191
169
166
171
165
143
130
131
130
124
121
113
101
96
98
101
101
59
52
54
56
52
39
22
17
0
2
4
6
14
27
36
39
47
47
49
50
48
44
44
47
45
53
28
93
87
112
137
134
172
164
167
179
218
202
209
233
243
243
239
220
202
205
206
191
162
166
171
159
140
138
138
127
125
120
106
89
80
80
83
84
68
56
41
51
49
29
25
22
0
0
0
5
16
26
35
42
52
49
47
45
45
43
39
36
33
38
37
80
77
112
141
119
119
145
150
172
213
208
198
229
218
237
245
201
204
205
206
171
163
178
159
167
139
137
133
131
125
110
95
88
86
84
85
87
80
52
44
53
45
31
25
24
6
4
3
6
15
29
39
44
50
49
49
50
51
47
41
36
38
43
56
80
80
81
121
122
127
145
144
159
205
223
212
213
206
223
233
201
203
195
185
148
146
162
148
157
134
131
131
131
119
106
94
89
87
84
82
83
86
58
47
50
43
34
30
24
23
24
21
17
24
41
51
52
52
49
45
44
45
43
39
34
42
42
60
73
91
72
112
128
132
145
144
143
175
217
225
209
217
213
200
166
162
156
150
128
143
157
146
152
129
119
120
120
90
82
77
79
82
82
83
85
89
64
48
42
33
30
28
20
37
41
38
32
37
52
59
54
57
49
39
34
35
37
37
35
48
43
46
58
88
84
99
111
128
138
145
134
137
183
220
217
227
207
177
148
143
144
145
138
140
152
145
147
128
108
109
106
71
66
64
70
75
79
82
87
85
67
52
36
20
18
21
15
38
44
45
43
48
56
57
51
52
44
36
33
37
39
37
34
46
49
41
52
65
88
79
86
121
122
136
133
122
155
198
206
184
172
155
151
149
151
142
135
129
138
137
141
132
106
107
101
79
73
69
71
74
75
79
85
85
74
64
46
21
14
20
18
36
40
47
54
60
62
60
57
42
37
33
35
39
39
32
24
33
46
53
63
52
87
81
94
116
109
123
134
132
150
175
176
160
157
146
152
148
153
136
127
132
136
139
144
142
107
105
91
78
73
71
73
75
77
82
89
88
79
76
65
39
25
28
29
32
31
41
60
69
66
65
69
57
48
39
36
38
36
28
20
29
27
62
70
58
80
91
107
114
113
122
132
138
152
162
159
173
174
158
160
148
158
140
132
132
131
137
142
147
106
99
80
73
71
73
78
81
82
87
94
88
74
76
78
59
40
36
35
23
19
31
56
68
63
64
74
90
73
53
40
37
37
33
28
39
10
59
64
65
66
85
95
114
125
131
127
131
147
160
163
151
161
149
155
140
151
129
117
111
110
120
130
144
103
97
75
83
83
85
90
90
87
87
91
83
64
68
81
70
48
38
34
20
35
25
29
66
76
67
79
73
87
83
54
34
35
39
34
28
35
49
66
79
83
82
80
85
135
143
126
137
143
142
157
139
137
135
136
143
143
125
104
115
113
109
105
99
91
82
76
81
85
91
95
95
95
96
97
75
65
68
81
78
55
39
37
31
38
26
32
68
74
64
74
80
81
72
51
30
22
26
31
33
38
52
71
82
83
85
89
82
129
137
122
130
133
130
141
138
136
133
133
140
142
131
116
109
107
105
103
101
98
94
91
79
82
88
92
95
96
97
97
90
82
80
86
83
66
50
43
33
33
23
36
70
75
69
81
88
80
73
64
46
30
31
42
20
26
46
70
79
74
74
83
89
129
137
126
131
132
127
134
136
136
135
136
138
138
128
117
114
110
104
101
99
97
96
94
86
87
90
93
97
98
96
94
94
88
83
83
83
75
59
45
26
25
22
38
64
69
72
90
72
67
64
58
45
29
23
26
29
36
61
89
95
83
80
89
99
127
135
128
133
135
133
138
136
138
140
141
138
130
117
107
116
110
103
98
96
96
96
96
99
98
97
98
99
98
94
90
85
84
79
77
81
82
67
47
40
42
43
49
55
55
64
83
69
70
65
55
48
46
42
35
40
43
57
74
75
65
65
75
99
114
122
122
127
133
137
142
144
142
140
137
132
122
114
109
109
105
99
97
98
102
106
107
105
103
102
100
98
95
91
89
83
84
81
79
85
90
76
55
79
82
82
71
55
50
59
69
76
77
73
68
75
90
96
92
98
93
88
85
81
80
88
98
99
103
111
117
122
130
138
141
150
140
131
125
121
117
116
117
109
105
101
99
101
104
106
107
102
103
102
99
94
90
89
89
83
83
80
79
85
89
79
63
95
100
97
76
52
51
60
59
69
64
65
77
93
104
111
114
112
106
91
76
72
81
91
96
100
97
106
116
120
126
133
133
141
129
119
117
116
111
108
109
104
102
100
99
101
102
102
101
103
106
107
101
92
85
86
89
82
78
74
76
81
86
83
78
80
86
84
62
41
49
59
51
79
67
72
96
108
101
96
101
107
106
93
77
76
89
96
93
97
91
101
114
116
119
124
120
126
117
113
116
116
106
95
90
87
88
89
94
100
104
105
105
109
113
114
105
91
82
83
87
82
75
72
75
82
88
93
97
93
91
75
53
46
53
51
39
56
77
84
87
106
118
108
98
104
116
116
100
88
91
96
96
97
97
97
99
102
109
117
123
126
117
111
110
105
94
87
86
81
76
76
84
92
100
113
126
119
121
111
113
78
85
81
85
78
78
78
75
73
75
80
85
66
76
75
56
36
29
31
31
71
80
82
86
100
104
103
108
126
136
140
133
127
124
114
102
105
104
103
102
102
104
108
110
121
116
113
112
104
93
87
87
84
75
74
84
98
107
113
118
121
120
117
123
89
87
84
93
72
72
70
67
64
65
70
75
60
65
64
51
32
22
25
32
71
84
84
81
94
107
113
120
140
146
149
148
149
145
128
109
108
107
105
104
103
103
104
104
113
111
111
110
103
93
87
87
93
90
90
96
103
107
111
116
128
126
124
124
86
73
71
80
78
78
75
72
69
69
71
73
69
52
35
30
32
33
36
40
49
75
81
77
97
125
131
127
145
144
141
139
143
144
135
122
108
105
102
100
101
104
106
108
111
109
109
111
111
106
99
94
99
105
110
107
100
99
109
120
130
130
127
109
73
63
67
70
69
69
68
66
64
61
59
58
53
31
12
13
25
36
41
43
31
49
65
86
115
128
128
131
152
149
143
139
139
141
138
134
118
111
102
96
96
99
103
105
112
109
108
113
121
122
114
105
101
106
108
106
105
110
121
130
126
129
124
91
66
69
82
74
66
67
68
69
67
62
56
52
25
22
18
18
25
34
43
47
36
35
58
107
133
118
114
140
156
156
154
151
147
142
136
133
134
122
107
95
91
92
93
93
102
101
100
105
114
120
115
105
107
104
102
108
125
143
150
149
134
128
120
84
69
70
81
65
68
68
68
69
69
65
59
55
20
29
34
30
32
42
51
52
53
61
85
122
138
125
127
156
158
158
158
158
155
146
136
130
137
125
109
97
92
90
89
87
87
92
95
96
100
106
106
101
107
111
115
121
136
154
163
164
149
125
118
95
89
70
72
56
50
47
44
44
45
45
43
41
31
38
37
30
36
53
58
51
65
100
122
126
134
145
156
169
162
158
156
158
159
153
142
135
130
119
106
97
95
94
92
90
83
94
100
96
94
99
103
104
97
118
133
132
128
136
153
164
156
118
117
113
116
82
77
66
46
41
35
32
35
38
40
40
