P2
# CREATOR: The GIMP's PNM Filter Version 1.0
64 64
255
159
146
132
128
137
148
154
156
172
171
176
186
187
174
155
143
126
154
167
194
210
228
252
227
246
242
234
224
215
203
184
166
157
152
162
186
201
204
212
226
233
225
212
200
191
183
173
164
142
119
103
107
118
121
121
122
110
122
128
121
114
122
138
149
140
142
141
133
125
129
144
158
168
171
178
182
175
158
141
134
128
145
158
194
220
239
255
230
242
243
242
234
223
206
182
163
154
155
166
180
188
191
200
213
225
221
213
202
188
173
158
148
138
121
109
112
118
115
108
103
100
108
113
112
115
126
137
141
130
138
140
131
118
118
133
150
151
160
173
179
172
158
150
150
148
148
158
198
230
245
251
227
235
240
242
235
221
204
183
166
152
160
171
177
180
186
197
206
211
213
211
201
181
158
139
130
118
111
110
117
123
119
108
99
90
94
98
105
117
130
136
136
137
133
127
121
119
122
128
132
136
145
161
173
174
167
165
168
167
154
165
204
234
248
250
235
233
239
239
229
215
201
188
178
161
170
176
177
180
187
193
194
202
206
208
198
174
146
128
123
110
113
117
123
127
124
112
100
88
89
94
103
117
129
135
135
134
126
117
112
114
118
121
123
136
140
150
164
171
168
164
163
170
154
170
202
227
245
250
250
238
245
248
239
225
212
200
191
177
180
181
181
187
193
192
185
206
207
206
193
166
137
125
126
131
136
137
131
125
119
106
92
87
89
95
103
111
118
125
130
112
116
118
112
105
105
115
125
139
137
143
159
171
172
167
162
172
157
176
193
206
224
228
234
236
247
255
254
244
229
213
200
187
185
187
196
206
209
206
200
209
205
199
183
156
129
123
129
146
154
150
133
120
114
103
89
84
87
93
101
103
104
108
115
93
105
116
115
107
105
116
129
136
134
139
155
169
171
168
165
170
156
175
177
180
197
193
197
216
229
241
246
243
235
221
209
199
195
199
210
215
209
203
203
195
187
178
165
141
120
119
130
147
157
153
130
114
111
103
90
79
82
90
99
101
95
93
95
88
98
110
116
117
118
122
127
135
133
138
150
158
158
155
153
156
144
165
162
165
184
175
176
193
204
215
222
227
229
224
217
218
210
211
216
207
185
174
177
175
166
157
147
129
113
116
130
150
161
155
128
108
104
96
83
77
78
87
100
103
94
85
82
73
85
102
118
129
133
128
122
112
142
153
144
143
146
148
153
157
156
154
154
158
164
172
177
177
184
191
194
199
204
203
200
201
190
183
184
183
174
163
159
156
149
143
138
125
114
123
140
149
161
161
141
119
104
88
73
82
90
96
94
89
84
81
80
89
94
102
112
121
125
121
116
113
133
140
137
142
145
143
147
150
148
147
148
153
159
165
167
169
174
176
176
179
184
185
182
190
181
175
175
173
165
158
156
155
146
138
134
126
123
137
156
161
166
158
138
122
114
106
97
84
88
90
89
86
85
87
89
103
101
100
106
114
118
117
115
118
127
128
133
144
146
143
148
151
148
146
149
154
158
160
159
157
158
157
154
156
164
168
168
174
169
165
164
160
156
155
157
159
147
136
130
127
131
147
166
169
168
158
143
135
134
128
120
109
105
98
90
84
83
86
90
104
97
95
101
110
114
115
115
114
118
118
127
140
141
141
152
157
154
151
152
155
155
152
148
143
144
141
137
141
152
161
164
165
165
163
160
156
154
156
160
162
149
136
130
128
134
150
166
167
165
159
153
152
151
142
130
129
117
102
90
81
77
79
84
92
86
86
95
103
104
104
106
99
106
109
115
126
127
133
150
158
156
153
151
150
147
141
137
134
133
130
126
130
142
151
154
159
161
161
156
151
149
151
153
153
145
137
133
134
142
157
170
170
164
156
153
155
155
145
134
126
110
94
85
78
73
73
77
76
73
77
88
93
89
87
91
92
105
108
107
114
118
129
146
156
156
155
152
149
144
140
138
131
132
128
123
125
132
138
138
142
148
151
147
143
142
141
139
144
144
142
142
145
155
171
183
181
167
150
141
142
144
141
136
129
112
97
92
85
73
66
65
63
63
71
84
86
78
78
85
94
110
109
100
105
115
124
136
146
149
152
151
146
144
144
147
137
138
136
131
130
133
134
132
130
139
148
150
153
157
156
151
155
158
158
155
155
164
179
191
189
170
146
132
129
130
131
130
130
115
104
104
97
79
64
58
56
57
69
83
84
76
78
88
93
109
105
90
96
109
116
122
130
137
143
143
139
139
144
149
143
146
146
142
141
142
140
136
131
144
158
168
179
188
188
183
173
177
175
166
160
165
179
191
190
171
147
132
125
122
121
121
115
103
99
106
104
87
68
61
51
56
72
88
85
72
73
85
87
100
104
94
87
96
110
119
129
138
151
140
124
145
164
149
151
155
155
150
149
150
145
138
139
151
164
176
194
212
217
211
205
199
190
179
167
161
168
179
184
161
136
125
124
121
112
105
101
95
92
98
105
99
81
64
64
67
79
92
88
75
72
80
82
95
102
98
97
109
122
127
117
129
146
142
129
147
168
163
164
166
162
150
143
143
145
145
160
167
179
194
212
228
231
228
214
208
198
185
169
156
156
162
168
156
138
124
117
114
108
102
100
97
96
97
97
89
73
60
85
85
91
99
96
85
79
81
82
94
101
100
105
118
128
129
113
124
146
152
145
153
169
172
164
169
169
161
152
152
156
159
173
173
182
202
222
232
234
235
223
216
205
190
170
151
142
142
148
149
140
123
114
112
109
103
98
97
97
97
94
88
79
72
101
99
99
101
101
97
95
94
93
100
101
99
106
119
125
123
115
126
148
165
168
166
167
168
152
161
172
177
177
176
174
173
173
168
176
200
221
227
228
231
227
218
205
189
169
147
134
131
133
139
135
123
118
121
118
110
99
97
95
97
100
102
100
98
101
98
94
92
95
103
107
107
108
110
106
101
107
121
126
123
112
122
141
168
187
182
170
165
153
158
169
183
192
191
185
179
176
173
182
205
224
228
228
231
230
218
201
185
166
146
132
127
123
126
123
120
123
130
126
116
113
105
98
100
107
113
113
110
90
91
87
81
88
103
112
113
118
119
114
108
115
129
135
132
108
118
130
157
189
191
176
171
171
167
169
180
189
190
185
181
185
188
199
217
229
233
231
230
230
216
198
183
167
149
136
130
122
116
112
116
124
129
124
118
130
120
110
108
111
113
108
102
87
92
91
84
90
108
119
119
121
124
122
118
124
137
142
139
122
131
130
143
176
186
177
176
182
176
175
182
188
188
188
190
197
209
222
230
236
238
235
229
222
208
194
184
174
160
147
141
129
115
109
116
123
120
116
118
134
129
124
120
116
110
101
94
90
100
101
94
98
116
126
125
121
126
127
123
128
139
143
139
143
151
139
136
162
176
173
178
178
177
182
191
194
192
194
200
210
227
241
243
244
246
240
231
211
200
190
186
182
171
159
152
138
120
112
120
122
112
110
118
127
130
133
130
122
111
101
96
107
110
109
108
116
129
135
133
133
137
132
123
126
140
144
138
151
158
157
146
141
151
166
175
185
188
190
191
193
198
206
212
211
235
253
254
253
254
246
234
209
199
187
180
176
169
158
148
142
124
116
115
115
122
124
113
123
132
136
129
120
114
106
97
120
118
110
103
109
128
146
154
147
149
144
133
127
133
143
148
148
157
162
156
152
157
166
171
184
186
191
200
210
218
222
224
220
238
249
247
246
247
238
222
209
201
192
187
184
175
162
150
144
126
116
114
111
117
121
112
112
124
132
130
126
124
122
118
128
123
113
103
108
128
152
167
158
157
154
145
132
128
141
157
156
164
168
163
157
159
165
169
185
189
199
216
234
244
244
240
236
244
246
240
242
245
233
215
209
204
198
196
193
183
166
153
141
124
115
110
104
108
112
106
106
119
130
131
128
129
131
132
127
126
121
115
116
129
149
163
159
156
157
156
142
128
136
155
170
172
170
163
156
157
164
171
188
197
214
233
248
254
253
250
246
248
244
237
242
249
238
219
209
205
202
202
199
187
168
153
139
126
120
114
104
105
109
104
111
121
129
129
125
123
127
132
131
131
130
128
128
135
149
161
163
158
161
167
155
135
131
142
167
168
168
165
162
162
168
176
192
208
228
242
245
244
244
245
239
242
237
231
238
249
243
226
210
206
203
202
199
186
166
151
140
132
130
125
112
110
115
110
118
122
126
126
121
120
126
133
139
137
137
139
142
148
159
171
173
168
169
173
162
140
129
131
148
153
163
172
175
174
177
183
198
217
238
243
234
225
227
233
225
231
230
226
232
245
243
231
214
208
201
197
192
180
162
148
136
132
133
128
113
112
119
118
122
120
119
119
119
121
129
138
135
134
140
151
160
165
172
181
179
175
174
170
158
141
133
133
139
145
158
174
182
183
188
195
210
227
243
242
227
216
218
225
218
230
235
230
233
244
246
238
220
211
199
192
185
174
158
146
138
134
136
129
114
115
128
132
130
121
113
112
113
115
123
132
123
126
140
161
175
177
179
182
177
177
173
163
149
139
138
141
143
145
155
170
179
185
195
205
221
235
246
243
227
216
218
224
221
237
245
239
238
247
251
246
224
213
198
188
181
170
156
145
148
143
144
136
120
124
142
150
140
125
111
106
105
106
111
119
112
116
131
155
172
176
176
178
181
178
173
167
157
146
138
135
140
147
159
169
180
194
210
222
214
245
255
235
222
228
224
208
233
232
240
246
242
245
246
235
221
200
201
190
178
177
162
157
152
144
139
138
138
138
141
145
126
128
127
118
108
102
105
110
112
116
132
155
171
177
178
181
184
182
178
173
165
158
153
152
147
153
164
176
191
208
224
235
233
238
237
228
222
219
213
205
234
233
242
248
247
251
250
237
220
199
201
192
184
188
175
170
149
145
145
149
150
145
139
138
119
119
116
111
105
104
108
113
112
117
132
152
167
173
175
177
192
192
189
182
175
169
167
166
152
156
166
183
205
226
243
252
250
229
216
219
218
207
200
203
228
228
239
248
249
254
249
232
214
195
200
195
194
203
191
183
157
151
149
152
152
143
133
127
118
114
108
104
102
105
110
113
112
118
132
147
160
166
169
170
187
192
195
192
188
186
185
183
168
168
175
191
213
233
246
252
232
213
203
209
210
201
201
211
219
223
236
246
249
253
245
223
204
189
199
199
202
213
200
188
175
162
149
144
140
132
124
120
126
117
107
101
101
104
108
109
108
117
131
144
156
165
170
171
173
186
199
203
205
208
208
206
191
189
192
203
220
235
241
243
211
211
211
211
208
208
215
224
220
226
241
248
249
254
246
223
198
189
205
206
208
218
202
187
184
169
153
143
135
127
121
119
128
118
105
97
97
101
104
105
104
115
129
141
153
166
173
175
174
192
209
213
215
219
219
215
203
202
206
217
232
244
248
249
232
240
243
234
224
223
227
228
232
239
249
249
246
255
253
234
207
203
221
218
215
222
204
187
181
172
161
153
144
132
125
123
122
113
101
94
94
98
102
104
102
115
128
137
147
160
168
170
175
195
212
215
217
224
225
221
218
219
223
231
240
246
248
247
251
250
249
246
243
241
237
233
244
248
251
240
233
246
255
243
228
226
242
233
222
227
209
194
182
176
169
161
148
134
128
128
120
112
102
94
93
96
102
105
103
115
127
132
139
151
158
158
160
183
202
209
217
230
237
236
243
243
242
242
240
236
230
226
236
224
221
236
251
252
248
245
247
249
246
228
217
235
251
246
246
245
255
243
228
231
215
202
188
182
173
160
143
130
127
132
123
116
107
98
94
96
101
105
102
114
127
134
139
146
154
160
170
172
183
201
213
220
228
237
242
236
233
232
227
220
220
225
226
219
215
223
237
247
248
244
240
246
242
227
220
231
246
254
247
250
249
241
234
232
230
228
206
193
175
153
134
126
134
147
143
139
128
113
104
101
99
96
105
120
135
141
140
144
155
165
174
175
184
200
213
221
230
239
250
241
231
223
213
203
203
208
217
211
209
220
239
251
250
245
231
243
249
244
240
246
251
250
249
252
251
246
241
239
235
230
202
190
174
158
143
137
143
153
146
141
129
115
108
109
108
105
109
124
140
145
141
143
155
169
180
179
184
196
208
217
226
233
250
244
236
228
216
204
199
200
208
205
206
219
236
246
244
237
229
242
252
251
251
254
249
241
244
247
249
249
249
246
237
226
198
187
173
163
154
149
151
156
151
146
133
117
109
110
112
111
113
122
134
139
138
140
152
166
182
181
183
189
199
209
217
223
234
237
240
238
230
218
209
204
206
207
212
221
230
233
231
227
236
244
248
245
246
249
243
233
232
236
242
247
252
248
232
216
195
184
172
165
160
154
152
153
154
152
139
120
105
103
107
110
113
112
116
122
127
132
145
158
176
178
180
184
192
204
216
223
224
230
236
235
230
221
212
206
207
213
222
226
226
226
227
229
241
247
248
245
245
248
241
230
219
225
234
243
250
245
225
206
194
182
171
165
161
154
149
148
154
156
146
125
106
101
106
111
107
98
95
101
109
119
136
153
165
173
180
182
188
203
219
229
233
235
234
227
219
215
211
207
205
213
223
227
228
230
235
241
239
248
254
252
252
252
243
230
212
219
227
235
241
238
221
203
191
180
170
165
160
154
150
150
157
158
150
132
116
110
111
112
97
86
80
84
91
103
128
152
157
170
180
180
183
196
215
227
234
237
233
223
215
213
210
205
202
206
212
220
227
235
243
247
240
250
255
251
247
246
238
227
211
215
219
223
227
226
216
205
187
178
169
165
161
157
157
161
167
161
148
135
127
122
112
101
89
79
73
74
78
91
123
154
155
171
182
179
176
188
207
219
220
227
228
222
216
213
207
200
200
199
201
210
225
237
244
245
245
252
251
241
234
233
229
222
210
212
212
211
214
217
213
206
183
175
168
165
162
161
165
172
176
163
145
134
133
127
108
87
84
88
86
79
82
103
131
150
168
161
161
171
182
189
198
206
205
199
205
218
214
198
195
204
196
197
205
216
223
226
230
235
236
236
237
232
220
207
202
203
205
205
201
198
199
204
204
200
187
180
171
167
169
173
175
176
175
173
163
150
137
124
107
93
101
96
96
98
100
106
126
147
155
150
153
167
181
188
191
195
196
192
195
201
199
192
194
203
197
195
198
208
218
224
229
234
233
234
231
220
209
203
201
202
193
197
198
192
187
186
185
182
172
172
173
175
177
176
174
171
173
170
160
147
136
126
113
102
123
113
115
126
127
119
128
146
152
147
148
159
171
178
182
184
185
184
183
183
185
191
199
205
204
198
196
203
211
217
222
227
222
226
221
207
198
197
197
194
191
199
202
193
181
174
170
168
165
169
175
178
178
175
173
171
160
159
152
142
135
131
124
117
134
132
137
146
147
140
141
148
154
150
146
145
148
156
165
173
171
176
176
173
180
196
207
209
211
207
205
206
206
206
210
216
207
213
209
195
188
191
191
185
200
206
205
195
181
172
165
160
162
163
164
161
158
159
163
168
150
152
151
147
145
145
143
138
133
144
151
150
152
157
157
151
148
151
150
143
137
139
148
157
154
163
167
168
179
199
209
207
206
207
210
210
203
197
200
208
200
201
194
181
177
184
188
187
204
204
198
188
179
171
162
153
149
148
144
139
136
139
147
153
147
153
157
157
158
159
157
152
133
150
157
148
149
162
166
158
149
159
165
160
150
145
145
146
138
147
156
162
176
192
198
195
189
193
200
203
199
193
196
202
198
191
182
175
174
180
189
195
200
199
193
185
179
174
164
154
139
137
135
131
130
131
134
137
140
148
154
155
155
156
154
151
146
156
159
151
149
158
168
171
167
175
178
172
164
157
147
138
130
135
144
156
169
179
181
180
174
174
178
186
190
190
190
192
187
180
180
188
190
185
186
193
186
191
192
187
180
175
167
159
143
138
131
125
122
121
121
120
128
136
143
144
145
149
151
150
162
161
161
158
152
153
168
184
184
184
178
168
162
156
143
128
128
130
138
153
164
169
170
170
168
162
161
172
183
186
183
181
173
171
184
207
210
193
182
184
170
182
190
186
177
170
164
159
151
140
124
112
106
105
104
104
122
130
137
140
144
151
158
160
161
160
162
162
158
157
170
186
201
186
175
174
168
150
133
126
126
131
140
150
160
166
167
167
177
175
169
161
161
169
176
178
174
186
204
217
219
211
198
188
185
178
176
179
178
169
160
157
159
154
140
118
97
89
95
104
122
123
129
140
147
150
153
157
164
161
159
158
157
162
177
194
196
186
177
169
158
143
131
126
137
139
144
151
161
171
178
181
185
190
193
193
195
199
200
196
203
211
222
230
230
219
204
193
183
174
169
169
167
161
158
159
156
147
132
114
100
97
102
108
127
130
137
145
148
148
154
161
164
159
155
156
161
169
183
196
182
179
169
153
141
136
133
130
143
145
151
159
170
181
191
197
198
206
215
221
226
231
230
226
237
239
242
244
241
230
214
203
193
185
177
169
159
146
139
138
141
132
118
107
103
105
110
113
135
140
148
154
153
150
155
163
157
156
158
163
170
177
182
185
172
169
155
137
132
140
144
141
139
145
155
168
181
194
205
211
219
226
232
235
242
250
253
251
252
250
247
246
243
235
223
213
204
200
193
180
161
140
122
113
117
113
107
104
105
110
117
121
143
147
155
162
161
156
155
159
150
157
166
176
182
183
178
171
171
163
145
129
131
145
151
146
137
144
155
168
184
202
219
230
241
246
248
247
249
251
251
247
238
236
234
234
234
232
227
223
213
209
199
183
163
143
124
112
98
101
104
106
109
115
125
132
148
148
153
163
167
161
153
149
150
159
170
178
183
182
174
165
169
157
140
129
132
140
141
136
141
146
155
167
184
207
231
248
245
251
254
251
244
234
221
210
208
209
211
214
217
222
226
228
232
221
202
179
161
147
131
119
97
102
106
109
113
120
132
141
146
143
145
155
162
157
148
142
151
158
163
164
166
171
171
167
169
159
149
147
145
139
134
132
140
148
162
177
194
215
237
251
239
245
249
243
231
214
194
178
180
185
191
196
202
210
221
230
241
228
206
183
170
161
146
131
110
107
105
106
112
123
135
143
140
136
136
142
147
144
141
140
152
155
153
147
148
158
167
170
174
168
168
172
165
150
141
143
133
149
171
192
208
223
236
245
238
243
244
236
223
207
188
173
165
172
181
187
192
203
218
230
229
221
205
192
188
183
166
148
122
112
101
100
109
123
134
139
134
131
130
133
133
133
136
141
