P2
# CREATOR: The GIMP's PNM Filter Version 1.0
64 64
255
175
172
169
171
173
172
165
159
147
144
138
132
126
122
119
118
121
121
119
116
114
115
118
121
133
136
139
142
143
146
149
151
149
146
145
148
151
150
143
137
134
130
130
133
130
122
115
113
113
119
128
137
144
150
155
159
163
167
173
179
181
178
172
167
173
170
167
168
169
167
161
155
147
143
138
132
127
123
121
120
121
120
118
115
113
114
119
122
128
132
137
141
142
143
144
145
150
148
147
148
150
147
139
132
132
129
129
133
132
125
119
117
116
122
132
141
148
154
160
163
173
175
178
181
182
179
174
171
172
169
166
165
164
161
155
150
145
142
137
131
127
124
123
122
121
119
116
113
112
114
119
124
123
128
135
139
140
140
139
139
146
146
146
148
148
145
137
130
129
126
128
133
133
128
124
123
122
128
138
147
155
161
167
170
181
181
181
180
178
176
174
173
171
168
164
162
159
155
150
146
142
139
134
130
126
125
125
125
121
119
116
113
112
114
120
125
124
128
133
136
137
137
137
138
138
139
142
145
146
144
137
132
126
124
126
132
135
132
129
129
129
135
145
154
161
167
173
176
180
179
177
174
171
170
171
172
170
167
163
159
155
150
146
143
139
136
131
127
125
125
126
127
121
120
118
114
113
115
120
124
128
129
131
132
132
134
137
139
135
136
139
142
143
140
135
131
125
123
125
132
136
134
133
134
137
143
151
159
165
171
175
178
175
174
172
169
165
165
169
172
167
165
161
156
151
146
142
140
135
132
128
124
123
124
127
129
123
122
121
118
116
116
120
123
127
128
128
127
127
129
133
137
136
137
138
139
137
134
130
128
129
126
128
135
139
138
138
139
144
149
156
163
167
171
174
176
170
171
171
168
164
164
168
172
163
161
157
152
146
141
138
137
132
129
125
121
121
123
127
129
124
124
124
121
119
118
119
121
121
122
123
123
123
124
127
129
135
136
136
135
133
131
129
128
135
132
133
140
143
143
142
144
149
154
160
164
167
169
171
172
165
168
170
168
163
161
163
167
160
158
155
149
143
138
136
135
130
127
123
120
120
123
127
130
125
126
126
124
121
119
118
119
115
117
120
121
120
120
121
122
131
132
133
132
131
131
132
133
139
136
137
143
147
146
145
147
152
156
161
165
166
167
168
169
162
166
169
166
161
157
158
161
156
155
152
147
141
135
129
126
127
124
120
120
123
125
124
122
124
126
129
129
127
122
116
112
112
115
118
119
118
117
118
119
119
121
122
122
124
128
133
137
134
137
140
142
144
147
151
155
160
162
165
168
168
167
164
162
161
162
161
159
155
155
159
162
154
152
148
143
137
131
126
124
122
120
118
119
122
124
124
123
127
127
127
125
121
117
112
110
116
118
120
120
118
117
117
118
116
117
119
120
122
125
129
133
135
138
142
146
148
152
156
159
159
162
168
172
173
170
166
163
162
162
161
157
154
153
156
160
152
149
143
136
130
125
122
120
116
115
115
117
121
124
126
126
132
129
125
121
117
114
112
111
119
120
120
118
115
113
112
113
110
112
114
116
117
120
124
127
133
138
144
149
153
157
161
164
159
164
170
176
177
175
171
167
164
163
160
155
151
151
153
155
149
145
138
130
124
120
118
117
112
112
114
117
121
125
128
129
135
131
125
119
115
115
116
117
120
120
118
114
109
106
106
106
103
106
109
111
112
115
119
122
130
136
144
151
156
160
163
165
163
167
172
177
179
178
176
174
166
164
159
154
150
149
150
151
145
141
134
126
121
117
116
116
111
113
116
119
122
125
128
129
131
127
121
116
114
116
119
122
123
121
117
111
105
101
101
102
98
100
103
105
108
111
116
119
126
133
143
152
157
160
161
163
166
169
173
177
179
180
179
178
168
165
160
156
152
150
149
148
142
138
132
126
121
118
117
117
112
115
118
120
121
123
125
126
124
121
116
113
113
115
119
121
124
121
116
108
101
97
97
99
94
96
98
100
104
109
116
121
126
134
145
154
159
160
160
160
167
170
174
178
180
181
179
178
169
166
162
159
157
153
149
146
140
137
132
127
123
120
119
119
113
116
120
121
119
118
119
121
120
119
116
114
114
116
118
120
121
117
111
102
94
91
91
93
92
93
94
97
101
108
117
124
130
139
150
159
163
163
161
160
163
168
176
182
184
181
176
173
169
167
165
163
162
157
150
145
139
136
133
128
125
122
121
121
114
117
120
120
117
115
115
117
122
121
119
118
117
118
119
119
115
112
104
95
88
84
85
87
91
92
93
95
100
108
119
126
134
143
155
164
167
165
162
160
160
167
177
185
187
182
174
168
169
168
166
166
165
160
152
145
141
133
126
126
132
134
129
122
125
124
121
119
119
120
122
124
124
122
120
119
121
121
121
120
113
109
101
89
80
76
79
83
88
89
92
94
98
104
112
117
134
139
147
156
163
165
163
160
162
169
180
186
186
181
175
171
165
164
165
168
170
166
157
148
140
135
132
134
137
138
132
126
127
125
123
121
119
119
119
120
125
123
121
121
121
120
118
116
112
108
99
88
78
74
75
78
86
88
90
92
96
104
112
118
131
136
144
153
160
164
164
164
164
170
178
182
182
178
173
171
167
166
166
168
170
165
156
148
139
139
140
142
144
142
138
134
134
132
128
125
122
120
120
119
126
125
123
123
122
120
116
112
111
106
97
86
77
72
73
75
85
85
86
88
93
102
112
120
128
132
138
146
154
160
165
167
168
171
175
177
175
172
171
170
170
168
167
168
167
163
155
148
140
142
145
147
146
145
145
145
146
142
136
130
126
124
124
124
127
126
125
125
124
121
116
112
106
102
93
84
78
75
76
77
83
83
84
85
90
99
111
119
126
129
133
139
145
153
161
166
171
172
174
173
171
169
170
170
173
171
168
166
164
159
153
148
142
145
147
147
147
148
152
155
155
150
143
135
130
129
129
130
128
127
126
126
125
121
116
112
101
97
90
84
81
81
82
83
82
82
82
83
87
96
107
114
123
125
128
131
136
145
155
163
172
173
174
172
170
170
171
173
176
173
169
164
160
155
150
146
145
146
148
149
150
154
158
161
159
155
149
143
138
136
135
135
130
128
126
124
121
118
112
109
96
92
87
84
84
86
87
88
83
82
82
82
85
92
101
108
118
120
122
124
128
137
150
159
172
174
175
175
174
174
176
177
177
174
169
162
155
150
146
144
146
147
149
153
157
161
163
163
161
161
160
158
154
148
143
139
133
130
124
120
116
111
105
102
94
90
85
83
85
88
89
89
83
83
83
83
84
89
96
101
110
113
116
119
123
133
147
157
170
174
178
180
180
180
181
182
178
175
168
160
151
146
143
142
146
147
151
157
163
166
165
163
163
166
170
171
167
159
150
144
136
131
124
117
111
105
99
95
93
88
84
83
85
88
88
88
84
84
84
83
84
87
92
96
104
108
112
115
121
131
146
157
169
174
180
183
185
184
184
185
179
175
168
158
149
143
141
141
142
146
151
157
161
163
163
163
169
176
181
182
180
173
160
147
139
131
121
113
108
103
97
93
92
89
85
84
85
88
90
90
87
88
88
87
86
87
90
93
97
103
111
116
121
130
141
150
156
166
175
178
179
183
185
185
178
174
167
161
155
148
142
137
140
144
150
156
162
165
166
167
169
175
180
181
179
174
163
151
144
137
128
121
115
109
101
96
91
87
83
81
82
85
87
87
84
86
87
87
86
87
89
91
92
98
106
112
118
127
139
148
157
166
172
173
173
176
178
178
173
169
164
159
154
149
144
140
144
147
152
157
161
164
166
167
170
175
179
179
179
176
167
158
149
143
135
128
122
114
104
96
87
83
78
76
77
79
81
82
80
82
85
86
86
87
88
90
89
95
103
111
118
128
139
147
155
162
166
164
163
165
168
168
168
165
162
159
157
154
150
148
154
155
157
159
161
162
163
164
170
175
178
178
178
178
171
163
150
146
139
133
126
115
103
94
84
79
73
70
70
72
74
75
75
79
83
86
87
87
89
90
91
97
105
113
122
132
142
148
149
155
158
155
153
156
160
161
166
164
162
162
162
162
160
158
161
161
161
161
162
163
164
165
172
175
177
177
177
178
173
166
153
149
143
137
129
118
104
94
82
76
70
65
65
67
68
69
74
77
82
86
88
89
91
93
95
100
107
115
123
132
140
145
140
146
149
147
146
151
156
158
163
162
161
163
165
167
167
166
164
164
163
163
164
167
169
170
173
176
178
176
177
177
172
164
158
154
148
142
134
123
109
99
83
78
70
65
63
65
67
68
74
78
82
86
89
92
95
98
99
102
107
114
121
128
133
136
132
139
143
142
143
149
155
157
159
159
159
162
166
168
169
168
170
169
167
166
166
168
171
172
174
177
178
177
176
175
169
161
161
156
150
144
137
126
112
103
88
81
73
67
65
67
69
70
76
79
83
87
90
94
99
103
104
105
109
114
120
124
127
128
128
136
141
141
143
148
154
155
160
159
160
163
167
170
171
171
178
175
171
168
166
167
168
170
174
178
179
177
176
174
167
158
161
156
150
144
136
126
113
104
91
85
76
70
68
69
71
72
78
80
84
87
90
96
102
106
108
109
111
116
120
123
124
124
127
135
141
142
143
148
153
154
163
162
163
166
170
173
174
174
183
181
177
173
169
166
165
165
170
172
175
177
176
173
168
165
162
158
150
143
135
126
117
112
94
89
81
71
64
64
71
77
82
83
84
85
89
95
103
109
110
111
113
115
118
121
123
124
128
132
137
141
143
146
150
153
162
163
166
167
169
173
178
182
183
182
180
178
176
173
171
170
168
171
175
177
178
175
171
169
164
159
151
143
135
126
118
112
93
90
83
75
69
69
75
80
79
81
82
85
88
95
103
109
110
109
109
110
114
118
123
126
132
134
138
140
141
144
147
150
158
161
165
168
171
174
178
182
179
181
182
183
183
180
177
175
168
170
173
175
176
176
174
172
166
161
153
144
136
127
119
114
99
96
90
82
76
75
77
80
77
79
81
84
88
94
102
108
111
110
108
109
114
120
127
132
138
139
139
139
138
139
142
145
154
158
164
169
172
175
179
181
174
178
183
187
187
184
180
177
171
170
170
170
170
172
174
175
169
163
155
146
137
129
121
116
110
106
99
91
83
79
77
76
78
79
81
84
87
92
99
104
113
112
113
115
120
127
133
138
143
143
141
138
136
136
139
142
149
154
162
169
173
176
178
180
174
178
185
190
191
187
182
178
174
171
166
163
163
166
171
174
170
164
156
147
139
131
125
120
116
111
104
96
89
84
79
77
79
81
83
84
87
91
96
101
111
112
115
120
125
131
135
138
145
144
142
139
136
136
138
140
146
152
160
168
172
175
178
180
178
183
190
194
194
189
182
177
173
170
165
161
161
164
169
172
171
165
156
148
141
134
128
125
116
111
104
98
93
89
85
82
79
81
83
85
88
91
96
100
107
110
113
119
124
129
133
135
144
144
143
141
138
138
139
141
145
151
159
166
171
174
177
179
181
185
191
195
193
187
179
174
167
166
165
165
166
167
169
171
171
165
156
148
142
137
132
129
118
113
105
99
95
91
87
83
76
79
82
86
89
94
100
104
108
109
111
114
120
126
131
134
141
142
143
143
142
141
142
144
146
151
158
164
169
173
176
179
181
185
190
192
189
182
174
168
161
163
166
169
171
171
171
170
170
165
156
149
143
138
134
131
123
116
107
99
94
90
84
81
73
76
81
86
91
96
103
107
111
110
110
112
117
124
132
136
139
141
144
144
144
144
145
146
146
151
157
163
168
172
176
178
185
187
189
191
189
182
173
166
169
167
166
169
174
176
174
172
172
168
162
156
149
142
135
129
126
122
114
105
95
87
81
78
78
78
83
92
98
100
103
108
112
114
116
117
120
124
130
134
129
142
150
147
148
154
152
144
144
151
160
166
170
172
176
179
183
184
186
187
184
179
171
166
165
165
166
169
171
172
171
170
173
169
162
156
150
144
137
133
128
124
118
111
102
94
88
85
81
81
86
95
101
104
107
112
115
116
117
117
119
124
130
135
135
146
151
147
147
153
152
145
146
152
161
167
170
172
174
177
180
180
181
180
177
173
169
166
163
166
170
172
172
171
170
171
174
170
163
157
152
147
142
139
131
129
125
119
111
103
96
92
86
86
91
100
106
109
112
117
120
119
119
118
120
125
132
137
142
151
154
149
148
152
151
145
148
153
162
168
172
173
175
176
177
177
176
173
170
167
166
166
165
170
175
177
175
173
174
175
175
171
164
159
155
151
146
144
136
134
131
125
118
109
102
97
92
91
96
105
111
113
117
121
125
124
122
120
122
127
135
140
147
154
158
155
152
152
149
144
149
154
162
169
174
177
178
178
175
175
173
169
164
161
162
164
165
170
175
177
175
174
176
178
175
172
166
162
158
154
149
146
139
137
134
128
121
112
105
100
98
97
102
110
115
117
120
124
129
128
126
125
126
131
139
145
148
155
160
160
156
153
148
143
151
154
161
168
175
180
182
182
175
175
173
167
161
158
160
163
163
165
168
170
172
173
175
177
175
172
168
164
161
156
150
146
139
138
134
129
122
115
108
105
105
104
108
115
119
120
122
126
131
131
130
130
131
136
144
149
150
155
159
161
158
153
149
146
153
155
158
165
173
179
181
182
176
176
174
167
159
156
158
161
161
161
161
164
168
173
175
176
174
172
170
167
163
157
149
144
137
136
132
128
123
118
114
112
113
111
114
121
124
124
125
129
133
133
134
135
137
142
148
153
153
154
156
157
155
152
152
153
157
155
156
160
167
173
177
177
176
177
175
168
159
155
157
160
162
159
158
161
168
174
177
177
173
172
170
168
164
157
149
142
135
134
130
127
123
121
119
118
118
116
119
125
127
126
127
131
133
134
136
138
140
145
151
155
155
154
154
153
152
151
154
158
159
156
154
156
163
169
172
173
171
177
177
168
162
161
159
155
146
149
154
162
169
174
174
173
171
173
174
173
168
159
150
145
139
132
124
122
124
126
125
122
117
119
121
120
120
123
129
134
138
137
136
137
141
148
155
159
153
152
150
147
146
149
157
163
165
162
159
155
155
160
168
175
171
176
175
166
160
159
158
155
149
151
155
162
170
175
177
176
174
173
172
169
163
157
151
148
142
135
127
125
126
128
126
124
122
124
125
124
123
125
130
134
139
138
137
138
142
146
152
155
152
151
150
147
145
148
155
161
162
160
156
153
153
157
165
171
170
172
170
163
158
158
157
155
150
151
155
162
169
174
176
176
174
172
168
163
158
154
152
150
144
138
132
128
129
129
128
126
127
128
128
127
127
128
131
134
139
139
140
141
143
146
149
150
151
150
148
145
145
147
152
156
158
157
154
151
150
154
161
166
167
167
165
161
157
157
156
155
148
150
156
163
170
172
171
169
168
167
163
159
156
153
150
149
145
141
135
131
130
130
128
127
127
127
128
128
129
131
133
135
139
140
142
145
147
148
148
148
149
148
146
144
144
146
150
152
156
155
153
150
149
152
157
162
163
161
160
159
159
157
156
157
149
153
160
167
172
171
165
160
158
158
158
157
155
151
148
146
145
141
136
132
130
128
127
126
123
123
125
128
131
135
137
138
139
141
144
147
149
149
149
148
147
145
144
144
145
147
149
150
155
155
153
151
149
151
155
159
158
155
155
159
161
159
158
158
154
157
163
169
171
167
160
154
147
150
152
154
153
150
146
143
145
142
138
133
130
127
125
125
122
122
125
129
135
140
142
142
141
143
146
148
149
148
146
145
144
143
142
144
147
149
149
149
154
155
154
151
150
150
153
156
154
150
152
161
165
162
159
160
159
160
161
163
163
159
152
147
140
143
146
149
150
148
146
144
145
144
140
135
130
127
125
125
126
126
129
134
141
146
148
147
145
146
146
146
145
143
140
139
142
141
141
144
148
151
150
149
153
153
153
151
149
149
150
152
151
148
151
162
167
164
161
161
160
159
157
155
153
150
145
141
137
139
142
145
146
147
146
145
146
145
142
137
131
127
126
125
131
131
133
139
146
151
151
150
148
148
147
145
142
138
135
133
141
140
140
144
149
152
151
149
151
152
152
150
148
147
148
150
143
148
154
159
168
174
171
165
173
166
157
150
147
143
139
135
128
129
132
136
140
142
142
142
142
142
140
134
128
124
125
127
133
134
137
140
145
149
153
155
151
151
149
144
138
133
131
130
131
134
139
143
147
151
155
159
155
154
153
152
150
150
150
150
150
157
163
167
172
177
176
170
172
165
156
149
145
141
136
132
125
126
128
132
136
139
140
140
142
143
142
139
134
132
133
135
134
135
137
139
143
147
150
152
149
148
147
145
141
137
132
129
130
134
139
143
147
151
156
159
158
156
155
153
152
152
152
153
158
165
172
174
175
178
178
175
172
164
155
147
143
138
132
128
121
122
123
126
129
133
136
139
140
141
142
141
140
139
140
142
135
136
137
138
140
143
145
146
148
145
144
144
144
141
135
129
130
134
139
143
147
152
157
160
160
159
156
154
154
155
156
157
162
170
176
176
174
176
176
174
172
164
154
146
141
136
130
125
119
119
120
121
123
128
133
137
136
137
139
141
141
141
141
142
138
137
137
138
138
139
141
141
148
143
139
139
142
141
136
131
131
134
140
145
149
154
159
163
162
160
158
156
156
157
159
161
166
174
178
176
174
174
174
173
171
163
153
145
139
134
128
123
118
118
119
119
119
123
130
135
135
137
139
142
143
143
142
140
140
140
139
138
138
138
138
139
148
141
135
133
136
137
134
130
130
134
140
145
150
156
161
165
163
161
160
159
159
160
162
164
171
177
179
177
175
176
175
172
168
160
150
142
136
131
125
120
116
118
119
118
117
119
126
131
137
138
141
145
148
148
145
142
144
143
141
140
139
138
138
138
144
139
133
130
130
130
128
126
128
132
138
144
149
155
161
165
164
163
163
164
164
165
166
167
174
176
177
175
176
178
175
169
163
155
145
138
133
128
122
117
114
117
118
117
114
115
121
126
135
137
140
146
151
151
148
144
146
145
144
142
140
140
139
139
138
137
134
132
128
124
120
118
124
128
135
141
146
152
158
163
166
167
168
170
171
171
171
170
173
174
173
172
174
177
173
166
159
152
142
134
130
125
119
115
112
116
118
116
112
112
117
122
132
133
138
145
151
152
149
145
148
147
145
143
142
141
141
141
132
135
136
134
128
121
115
111
121
125
132
138
144
150
156
160
167
169
172
174
176
175
174
173
