ply
format ascii 1.0
comment zipper output
comment modified by flipply
comment modified by boundply
comment modified by clusterply
element vertex 566
property float x
property float y
property float z
property float confidence
property float intensity
element face 1159
property list uchar int vertex_indices
end_header
-0.225623 0.212565 0.0744205 0.850855 0.5 
-0.36025 0.254071 0.0669243 0.900159 0.5 
-0.674325 0.502671 0.516629 0.398443 0.5 
0.225983 0.229973 0.376814 0.85268 0.5 
-0.0766462 0.204662 0.0732612 0.675938 0.5 
0.634097 0.0499249 0.360183 0.652757 0.5 
0.726851 -0.0469489 0.226548 0.708171 0.5 
-0.0699169 0.05564 0.491576 0.454541 0.437538 
0.585193 0.13763 0.231435 0.533079 0.5 
-0.586412 0.629492 -0.249982 0.404517 0.5 
0.693375 -0.067946 0.377328 0.535542 0.5 
0.791296 -0.227134 0.220918 0.579563 0.425995 
-0.216864 0.827852 -0.0704277 0.365607 0.5 
-0.814807 0.351927 0.6394 0.499575 0.5 
-0.67358 0.223186 0.665676 0.564827 0.5 
0.378004 0.253766 0.225205 0.748371 0.5 
0.722833 -0.0454587 0.0678564 0.680399 0.5 
0.679766 -0.0766118 -0.0757658 0.600054 0.5 
-0.939174 0.374079 0.374864 0.824561 0.5 
-0.847294 -0.0740143 0.38485 0.690889 0.5 
-0.674631 0.591092 0.22576 0.807492 0.5 
-0.828517 0.54857 0.377648 0.248168 0.41865 
0.376718 0.211467 0.375824 0.653433 0.5 
-0.414743 0.365071 0.217815 0.691477 0.5 
-0.391294 0.216459 0.371525 0.539149 0.5 
-0.831114 -0.22406 -0.071207 0.710999 0.5 
0.495014 0.174937 0.350591 0.530957 0.5 
-0.936332 0.219218 0.0781686 0.635593 0.5 
-0.870137 0.0377016 0.0443195 0.487167 0.430737 
-0.813504 0.489986 0.506646 0.414139 0.5 
0.512253 0.191747 0.22431 0.524222 0.5 
-0.0634107 0.834312 -0.219044 0.341071 0.440034 
-0.222288 0.677257 -0.0849079 0.396317 0.473039 
-0.348285 0.247421 0.229945 0.599596 0.5 
-0.376201 0.678353 0.078455 0.413994 0.469929 
-0.484311 0.382754 0.390599 0.696873 0.5 
0.763934 -0.124705 0.211929 0.665192 0.5 
0.730185 -0.212487 0.412732 0.671611 0.5 
-0.509787 0.561398 0.232522 0.394763 0.437313 
-0.124257 0.589165 -0.0523787 0.136389 0.380194 
-0.70082 0.356477 0.632955 0.627973 0.5 
-0.652097 -0.628368 0.224354 0.413051 0.5 
-0.935682 0.094777 0.089039 0.442613 0.376719 
-0.82927 0.230671 0.676968 0.629117 0.5 
-0.247651 0.669118 0.0378607 0.710449 0.5 
-0.663574 0.695039 -0.224086 0.449093 0.5 
-0.669573 0.580371 0.0724678 0.855717 0.5 
-0.951666 0.0821331 0.529043 0.673877 0.5 
0.716807 -0.212195 -0.105048 0.585857 0.459742 
0.106858 0.163778 0.462426 0.602316 0.374044 
0.572815 -0.207682 0.581124 0.649753 0.5 
0.0230963 0.671947 -0.122526 0.338176 0.5 
-0.33182 0.768603 0.0255645 0.44784 0.5 
-0.945692 0.3727 0.221977 0.8537 0.5 
-0.783876 0.80866 -0.529965 0.256591 0.4298 
-0.878477 -0.0655542 0.0630204 0.523819 0.297125 
0.629492 -0.0927944 0.481002 0.733041 0.5 
-0.257763 0.785505 0.0203014 0.483961 0.464804 
0.806923 -0.371597 0.222111 0.487783 0.481728 
0.221769 -0.93277 0.617896 0.280725 0.5 
0.0763041 0.242155 0.0742619 0.693854 0.5 
-0.431809 0.513377 0.181303 0.561042 0.5 
-0.972941 0.224352 0.376256 0.848517 0.5 
0.753803 -0.148371 -0.00349058 0.577837 0.48103 
-0.112305 0.834963 -0.112452 0.258799 0.457369 
-0.677985 0.0838113 0.664603 0.588503 0.5 
-0.525739 0.221567 0.519376 0.658867 0.444043 
0.769328 -0.237053 0.34314 0.622686 0.5 
0.0761063 0.250773 0.226461 0.633691 0.5 
-0.0764288 0.208001 0.224156 0.547632 0.5 
0.0769352 0.210444 0.376601 0.375412 0.377874 
-0.673515 0.577396 0.375095 0.855321 0.5 
0.547767 0.109264 0.39634 0.519282 0.5 
-0.332753 0.784243 -0.0513978 0.274377 0.177706 
-0.505793 -0.934785 0.615701 0.417977 0.459314 
0.765747 -0.245613 -0.0390882 0.490139 0.464008 
-0.37212 -0.960752 0.538685 0.509262 0.5 
-0.0703827 -0.237817 0.670582 0.608282 0.5 
-0.918392 0.344799 0.107304 0.549009 0.5 
-0.930259 -0.221257 0.224408 0.753697 0.5 
-0.682356 0.634211 -0.0893834 0.595216 0.5 
-0.647022 0.558755 -0.0609354 0.453029 0.5 
-0.54873 0.507982 -0.0529619 0.340522 0.399141 
-0.676439 0.377859 -0.0901062 0.446131 0.5 
-0.775414 0.653241 -0.230239 0.263106 0.5 
0.371248 0.0740134 0.501991 0.669811 0.5 
-0.872008 0.0146973 0.382293 0.480115 0.5 
0.763958 -0.122689 0.0788067 0.499934 0.485059 
0.0751107 0.0777411 0.519479 0.574624 0.463256 
-0.534883 0.113255 -0.121543 0.569796 0.5 
-0.695139 0.678224 -0.529303 0.381568 0.451091 
-0.930554 0.488967 0.358443 0.648478 0.5 
-0.773041 0.766524 -0.404692 0.241573 0.413559 
0.619228 -0.108881 -0.165603 0.732658 0.5 
0.230458 0.0773573 0.529824 0.592572 0.5 
0.227302 0.271124 0.225992 0.795238 0.5 
-0.565608 0.497469 0.480128 0.463512 0.5 
0.484474 -0.930821 0.511452 0.259499 0.426724 
0.380088 -0.230475 0.680123 0.654705 0.5 
-0.806532 0.0829692 -0.0354394 0.505277 0.5 
-0.797531 0.367406 -0.0343532 0.466714 0.5 
0.225852 -0.0752473 -0.263742 0.792948 0.5 
0.380348 -0.0761547 -0.243281 0.581086 0.481535 
-0.222994 0.208148 0.225593 0.438744 0.464814 
-0.0565486 0.171276 0.355178 0.445477 0.415699 
-0.550143 0.554061 0.0471559 0.611624 0.331941 
-0.493931 -0.878298 0.610602 0.460353 0.5 
0.228099 0.262892 0.0709137 0.738924 0.5 
0.0860045 0.192283 -0.065298 0.767738 0.284429 
-0.376649 -0.825698 0.5477 0.654962 0.5 
-0.580919 0.813972 -0.767252 0.245129 0.411885 
-0.494117 0.635002 0.0739485 0.425035 0.5 
-0.0720623 0.663428 -0.0856664 0.196275 0.5 
-0.817376 0.0839147 0.647822 0.490413 0.5 
0.227649 -0.830112 0.641716 0.576734 0.5 
0.351754 -0.806135 0.629187 0.498672 0.40219 
-0.519778 0.532891 0.373437 0.677314 0.5 
-0.674211 -0.220186 -0.191093 0.511499 0.5 
-0.100225 0.929292 -0.120768 0.249925 0.433402 
-0.788233 -0.226797 0.487051 0.678588 0.5 
-0.530921 -0.829723 0.535885 0.520655 0.5 
-0.23456 0.180043 -0.0507835 0.906897 0.5 
-0.238204 -0.81276 0.552675 0.624009 0.5 
-0.200826 -0.941452 0.650985 0.553401 0.5 
-0.0739975 -0.831222 0.675766 0.501112 0.5 
0.0735796 -0.827366 0.655133 0.575852 0.5 
0.401513 -0.845639 0.588485 0.52148 0.5 
0.503578 0.052422 0.475644 0.681163 0.5 
-0.581205 0.804753 -0.697828 0.549906 0.5 
-0.615494 0.266087 0.575451 0.724494 0.5 
-0.954365 0.0864925 0.372901 0.794672 0.5 
0.791875 -0.227264 0.0734045 0.507794 0.5 
-0.374482 0.680776 -0.0753036 0.424682 0.5 
-0.377882 -0.526034 0.536167 0.682177 0.456916 
-0.23387 -0.222183 -0.283906 0.72469 0.5 
-0.649493 0.673587 -0.6748 0.518552 0.5 
-0.19433 -0.854164 0.642602 0.511042 0.5 
0.22362 0.166772 0.465476 0.606203 0.420431 
0.229701 -0.214301 0.718641 0.455087 0.5 
0.81198 -0.532752 0.358736 0.33948 0.5 
0.0915536 -0.136479 0.637659 0.327523 0.438474 
0.533876 0.083506 -0.0830835 0.66246 0.5 
-0.221091 0.109569 0.407141 0.683562 0.5 
-0.377564 0.107743 0.416624 0.515399 0.5 
0.769857 -0.368859 -0.0400537 0.568535 0.5 
0.681358 -0.831099 0.402792 0.650152 0.5 
-0.374224 0.531606 -0.0466484 0.386286 0.5 
0.532982 -0.21934 -0.260462 0.715629 0.5 
-0.171754 -0.266601 -0.335973 0.34034 0.5 
-0.938729 0.50394 0.223937 0.257143 0.5 
0.218244 -0.132075 0.638925 0.273204 0.415905 
-0.075837 -0.217342 -0.381169 0.294426 0.332222 
-0.360997 0.518272 0.0932132 0.626298 0.5 
0.345067 0.160494 0.461124 0.599451 0.5 
-0.962457 0.0723891 0.225481 0.604102 0.5 
-0.663753 0.8399 -0.669081 0.460427 0.5 
-0.539551 0.374626 -0.0446278 0.48145 0.5 
-0.982607 0.223575 0.222069 0.570519 0.5 
0.632503 0.0334059 -0.0410939 0.532211 0.5 
-0.584921 0.56345 -0.362966 0.690546 0.5 
-0.892616 -0.031483 0.233331 0.519516 0.5 
-0.225415 0.033348 0.471311 0.657986 0.5 
-0.670332 0.550231 -0.517659 0.523327 0.5 
0.530168 -0.0662389 0.535751 0.689793 0.5 
-0.0452854 0.951349 -0.213447 0.314049 0.5 
-0.234953 0.169216 0.335643 0.477385 0.440541 
0.651891 0.0655793 0.223952 0.594362 0.5 
-0.11041 -0.762225 0.578682 0.155274 0.5 
0.0728109 -0.668643 0.70359 0.713344 0.5 
0.227193 -0.674791 0.721904 0.568403 0.478519 
0.37569 -0.673742 0.676943 0.523055 0.449685 
0.814398 -0.806485 0.368964 0.6368 0.5 
-0.770113 0.531075 -0.0709699 0.403345 0.5 
-0.370287 -0.675284 0.505272 0.508239 0.5 
-0.224311 -0.678051 0.516891 0.684715 0.5 
-0.106073 -0.675205 0.541335 0.348943 0.5 
-0.0327211 -0.667385 0.64293 0.54592 0.5 
-0.525749 0.0812272 0.506267 0.634635 0.5 
-0.380883 0.0439489 0.47304 0.600577 0.5 
-0.669489 0.687207 -0.373269 0.685413 0.5 
-0.856109 0.410107 0.56351 0.392929 0.5 
-0.585477 0.537639 -0.218791 0.532648 0.5 
0.0700563 0.842661 -0.332002 0.400699 0.458536 
0.648457 -0.237284 -0.192317 0.702331 0.5 
0.714695 -0.679028 0.4258 0.682683 0.5 
0.831872 -0.676419 0.411688 0.632258 0.5 
-0.911597 -0.109892 0.118096 0.477822 0.5 
-0.821286 0.572996 0.225553 0.505065 0.5 
0.727533 -0.38253 -0.115369 0.500391 0.430286 
-0.218607 0.122494 -0.120555 0.656019 0.5 
-0.103649 0.121257 0.411765 0.426861 0.5 
-0.799653 -0.502631 0.222578 0.703257 0.5 
-0.681611 -0.225963 0.558324 0.650646 0.5 
-0.526624 -0.673563 0.222571 0.270787 0.5 
-0.699439 0.497359 -0.241672 0.130446 0.5 
-0.377076 0.202089 -0.0681721 0.590842 0.5 
-0.867878 0.388202 0.0531804 0.470029 0.5 
-0.856477 0.0112118 0.543498 0.573141 0.431344 
-0.826539 0.527658 0.076047 0.601617 0.5 
-0.431826 0.326376 0.343138 0.650903 0.5 
-0.675602 0.222558 -0.0906614 0.797322 0.5 
-0.378697 -0.232643 -0.263617 0.53277 0.5 
-0.913585 -0.217023 0.324886 0.535268 0.5 
-0.500633 -0.65233 0.357933 0.335404 0.429844 
0.435715 0.139418 0.443027 0.696033 0.374342 
-0.440876 -0.684153 0.417274 0.410021 0.5 
-0.225294 -0.519747 0.545567 0.74085 0.5 
0.0637925 -0.532371 0.728826 0.586151 0.5 
0.240744 -0.533636 0.742811 0.772915 0.5 
0.378544 -0.525845 0.707078 0.402513 0.429742 
-0.693151 0.521086 -0.372716 0.645327 0.5 
-0.808687 -0.0791537 -0.0580665 0.490806 0.397415 
-0.768061 0.867174 -0.629525 0.259897 0.5 
0.520763 -0.0794526 -0.204921 0.576137 0.468722 
-0.916477 -0.223752 0.0992796 0.494536 0.346642 
-0.783341 0.699567 -0.360598 0.476378 0.5 
-0.093933 -0.376071 0.689304 0.693464 0.5 
-0.522002 -0.0693707 -0.218383 0.484023 0.5 
-0.677233 0.0740056 -0.0962943 0.44421 0.5 
-0.526168 -0.224419 -0.244816 0.676741 0.5 
-0.545265 -0.586521 0.424534 0.456708 0.5 
-0.524822 -0.515072 0.509043 0.529612 0.5 
-0.119147 -0.539287 0.55952 0.642794 0.5 
0.735931 -0.532142 0.421785 0.553232 0.5 
-0.581809 0.657291 -0.377418 0.366343 0.5 
-0.206869 0.698378 -0.171519 0.452499 0.429459 
-0.723116 -0.575415 0.237148 0.415275 0.458036 
-0.918204 -0.0970433 0.218509 0.731519 0.5 
0.933989 -0.560615 0.336424 0.540879 0.467047 
0.775185 -0.371477 0.359687 0.599608 0.5 
-0.82589 0.218689 -0.0420746 0.386393 0.5 
-0.374869 -0.0770566 -0.243168 0.79815 0.5 
0.0578885 -0.278251 -0.461507 0.564234 0.5 
0.0816747 -0.19647 -0.396885 0.755212 0.5 
-0.513286 0.048573 -0.176144 0.463258 0.5 
-0.0560509 -0.522462 0.665178 0.595577 0.5 
-0.228673 0.559215 -0.0619362 0.209483 0.5 
0.754838 -0.143309 0.314075 0.653533 0.5 
-0.52098 0.222338 -0.0706397 0.700525 0.5 
-0.0720268 -0.0709968 -0.271477 0.723165 0.5 
-0.533528 -0.964278 0.534678 0.415246 0.5 
0.225998 -0.212428 -0.388393 0.782073 0.5 
0.122223 -0.478819 0.761061 0.760214 0.5 
0.192408 -0.479775 0.763915 0.758565 0.5 
-0.924297 0.356957 0.508417 0.651389 0.5 
-0.953304 0.224622 0.52886 0.806636 0.5 
-0.223363 -0.07422 -0.251014 0.821245 0.5 
-0.708068 -0.0514729 -0.127518 0.499561 0.5 
0.0740957 -0.0667849 -0.272976 0.709958 0.5 
-0.369289 0.13664 -0.141751 0.602235 0.5 
-0.637316 0.378024 0.560855 0.592685 0.363291 
0.0550153 0.714205 -0.209666 0.359593 0.5 
-0.676986 0.90765 -0.697773 0.253404 0.5 
-0.587645 0.678441 -0.521337 0.676128 0.5 
-0.0737625 0.698007 -0.19157 0.847505 0.5 
-0.776869 -0.483805 0.356278 0.757943 0.5 
-0.457479 0.429175 0.274589 0.786631 0.5 
-0.584522 0.694505 -0.672083 0.358909 0.45373 
0.019852 -0.424136 0.745026 0.636318 0.48371 
0.0814536 -0.371488 0.757869 0.78747 0.5 
0.209043 -0.369092 0.759954 0.625362 0.5 
0.277475 -0.397282 0.743015 0.530955 0.477277 
0.376885 -0.375673 0.714309 0.490111 0.486455 
-0.533572 -0.376183 0.580712 0.617101 0.5 
-0.370249 -0.376863 0.576348 0.762472 0.5 
-0.220522 -0.376316 0.567468 0.698842 0.5 
-0.0694801 0.17075 -0.0437307 0.52669 0.5 
-0.889622 -0.224589 0.0289628 0.479894 0.5 
0.0670752 -0.209426 0.717426 0.251688 0.406801 
-0.679359 -0.379854 0.535787 0.758028 0.5 
-0.764239 0.620378 -0.117587 0.890926 0.5 
-0.787021 -0.0451301 0.497764 0.697079 0.5 
-0.0210728 -0.350536 0.756298 0.66078 0.5 
-0.474029 -0.325401 0.601993 0.734857 0.5 
0.514241 -0.374097 0.648058 0.491924 0.475524 
0.0509088 0.815688 -0.252838 0.268894 0.430011 
0.370076 0.190094 -0.0622495 0.555015 0.5 
0.221521 -0.0586864 0.576472 0.175096 0 
-0.428682 -0.314982 0.60384 0.66907 0.5 
-0.619247 0.833441 -0.758525 0.285125 0.450981 
0.802591 -0.371663 0.0743237 0.58451 0.436983 
0.102664 -0.282739 0.752855 0.688976 0.462284 
0.204813 -0.295214 0.75159 0.673557 0.463885 
-0.524191 -0.21869 0.588665 0.620183 0.5 
-0.542036 -0.250943 0.601584 0.755217 0.5 
-0.430209 -0.283365 0.602929 0.619849 0.5 
-0.370736 -0.223938 0.577636 0.531876 0.467683 
-0.226698 -0.227353 0.58301 0.693961 0.5 
0.376518 0.246195 0.0731504 0.827562 0.5 
0.50491 -0.231531 0.627214 0.679393 0.5 
-0.116741 -0.187147 0.591082 0.639236 0.5 
0.210935 0.137896 -0.142656 0.826286 0.5 
-0.417076 0.376937 0.0765916 0.652465 0.5 
-0.656207 -0.490568 0.482463 0.596573 0.5 
-0.683628 -0.070031 0.521522 0.471443 0.460307 
-0.528659 -0.0754848 0.544267 0.644875 0.487413 
-0.374459 -0.0754069 0.541843 0.777374 0.5 
-0.226847 -0.0756717 0.537391 0.514712 0.470091 
-0.0783087 -0.0760872 0.564926 0.793095 0.5 
-0.6833 -0.54545 0.383512 0.72263 0.5 
0.375215 -0.116296 0.623392 0.494404 0.5 
0.471045 -0.129497 0.611648 0.593986 0.448967 
0.0708485 -0.0650362 0.577639 0.546899 0.5 
0.374158 -0.0407743 0.560772 0.447625 0.444642 
-0.66878 -0.366241 -0.194488 0.460133 0.5 
0.0519626 0.929528 -0.32935 0.40888 0.5 
-0.650483 0.0253922 0.55776 0.746569 0.5 
-0.0783985 -0.951755 0.675276 0.447203 0.5 
0.0732287 -0.946598 0.647226 0.222029 0.41081 
-0.527432 -0.379723 -0.234769 0.522019 0.5 
0.379131 -0.954898 0.539916 0.266796 0.5 
-0.562588 0.36445 0.481238 0.554568 0.5 
0.312707 -0.931069 0.604001 0.339738 0.5 
-0.443152 0.188957 0.456636 0.581555 0.5 
0.02292 0.94952 -0.265763 0.56112 0.401469 
-0.41795 -0.937473 0.608881 0.28622 0.5 
0.521425 -0.829721 0.526014 0.365784 0.5 
0.661197 -0.225886 0.515297 0.736834 0.5 
0.576519 -0.875272 0.429178 0.294647 0.339561 
-0.583626 0.728481 -0.758595 0.298703 0.454422 
0.653083 -0.377423 -0.207617 0.746215 0.5 
-0.126861 0.63048 0.0121291 0.393352 0.5 
-0.246306 0.560579 0.045645 0.561375 0.5 
-0.649168 -0.0904568 -0.17386 0.626305 0.5 
-0.435373 -0.890641 0.607754 0.465916 0.5 
-0.875847 -0.38912 0.231383 0.67606 0.5 
0.835586 -0.856204 0.228331 0.29989 0.456334 
-0.1429 0.597246 0.00555099 0.357399 0.365603 
0.612689 -0.779724 0.469344 0.47429 0.448934 
0.91306 -0.766145 0.313174 0.418448 0.5 
0.369645 0.06438 -0.189937 0.54369 0.457314 
0.649262 0.0625066 0.0770959 0.635779 0.477827 
-0.595169 0.179622 0.605485 0.628625 0.5 
0.366159 -0.233421 -0.349843 0.546403 0.5 
0.489 -0.660152 0.624403 0.5775 0.5 
0.554596 -0.684598 0.563281 0.512416 0.5 
0.648965 -0.662421 0.500736 0.614895 0.5 
0.935237 -0.671575 0.344052 0.542972 0.5 
0.979414 -0.678308 0.223447 0.45455 0.5 
-0.597064 0.129265 0.612635 0.590657 0.413039 
-0.459266 0.276631 0.440001 0.732356 0.5 
0.496466 -0.520705 0.638601 0.578512 0.5 
0.566305 -0.528085 0.579738 0.51629 0.458461 
0.665441 -0.524277 0.510551 0.635334 0.5 
0.965572 -0.527453 0.223763 0.587831 0.5 
-0.1922 0.811476 -0.177672 0.410612 0.5 
-0.834434 -0.382367 0.380483 0.756683 0.5 
0.404389 0.129419 -0.128895 0.549 0.5 
0.587623 -0.372481 0.588215 0.621894 0.381867 
0.66715 -0.377983 0.521951 0.644155 0.5 
0.737213 -0.378775 0.434706 0.675196 0.5 
0.848313 -0.474999 0.230837 0.378418 0.5 
-0.907858 -0.124485 0.317942 0.621937 0.5 
-0.452075 0.0862792 0.448959 0.925778 0.5 
0.230095 0.068365 -0.206468 0.766242 0.5 
-0.908519 0.483454 0.132966 0.636247 0.5 
-0.0754764 0.0514623 -0.194635 0.856895 0.5 
-0.00473694 0.935803 -0.302654 0.433302 0.5 
-0.892847 0.00302024 0.281326 0.721227 0.5 
0.494656 -0.934927 -0.0597111 0 0 
0.367933 -0.964237 -0.0796035 0.173751 0.5 
0.371999 -0.953516 -0.222023 0.174384 0.5 
0.52153 -0.943442 0.36961 0.227328 0.5 
0.670874 -0.930495 0.0762695 0.245023 0.5 
0.463736 -0.916954 -0.181946 0.315571 0.5 
-0.62568 -0.611198 0.322021 0.514095 0.5 
0.836557 -0.83937 0.0716904 0.270198 0.5 
0.731852 -0.883901 0.0169972 0.565383 0.5 
0.669596 -0.816734 -0.0551181 0.409401 0.412106 
0.550958 -0.850933 -0.0909478 0.464947 0.5 
-0.595544 0.760876 -0.58522 0.645866 0.5 
-0.466029 0.391129 0.0107775 0.620782 0.5 
-0.593366 0.593158 -0.470691 0.828271 0.5 
-0.231478 0.05066 -0.189847 0.811815 0.5 
0.512155 -0.815496 -0.223337 0.632809 0.5 
0.389215 -0.859334 -0.284205 0.497655 0.5 
-0.226652 -0.955969 -0.350608 0.16856 0.5 
0.931325 -0.780639 0.219336 0.274937 0.5 
0.924388 -0.775635 0.097481 0.695482 0.5 
0.807801 -0.788562 -0.0294732 0.473614 0.5 
0.831038 -0.512203 0.057624 0.629664 0.372945 
0.953027 -0.674534 0.0702478 0.592036 0.5 
0.0804085 0.0644691 -0.19883 0.827086 0.5 
0.893279 -0.748749 0.00986717 0.533411 0.473974 
0.824176 -0.674982 -0.0376774 0.678395 0.5 
-0.0793379 0.123787 -0.118655 0.732965 0.5 
0.0721244 -0.939076 -0.313569 0.274297 0.5 
0.475772 0.166402 -0.0268362 0.59012 0.5 
-0.642667 -0.958392 -0.0476146 0.135623 0.5 
0.603809 -0.758791 -0.15678 0.587111 0.478707 
0.052624 0.135151 -0.12616 0.653192 0.5 
0.908453 -0.661098 -0.0073482 0.577277 0.5 
0.696213 -0.679682 -0.0841001 0.545794 0.5 
0.630858 -0.663448 -0.179994 0.60889 0.5 
0.559256 -0.682901 -0.253891 0.498899 0.428968 
-0.675127 0.809792 -0.533577 0.577834 0.5 
0.478572 0.0325771 -0.165168 0.636933 0.5 
0.563927 -0.367697 -0.275005 0.759593 0.5 
-0.374904 0.0656374 -0.18237 0.70381 0.5 
0.948575 -0.540661 0.0883212 0.405306 0.438652 
-0.654617 0.579683 -0.632258 0.206571 0.0818868 
-0.781132 -0.355219 0.477687 0.744646 0.5 
0.72507 -0.529544 -0.102374 0.507469 0.5 
0.64899 -0.523069 -0.195865 0.669427 0.418864 
0.567978 -0.531052 -0.268957 0.743712 0.5 
0.225666 0.198496 -0.073502 0.516883 0.5 
0.489728 -0.374441 -0.321623 0.735721 0.5 
0.777313 -0.52487 -0.0256579 0.400123 0.5 
-0.0770941 -0.946584 -0.341307 0.410891 0.5 
-0.622763 -0.9447 0.507162 0.470407 0.5 
-0.885229 0.273592 0.0149501 0.639314 0.5 
-0.437148 -0.719561 0.24413 0.168077 0.5 
-0.760257 0.535961 -0.207572 0.463763 0.5 
-0.229866 -0.797181 -0.230874 0.371561 0.5 
-0.661818 0.440402 -0.188071 0.381911 0.5 
-0.465058 0.632425 -0.0146408 0.233189 0.5 
-0.759799 -0.245797 -0.15601 0.391022 0.480012 
-0.781637 0.733184 -0.473915 0.363322 0.5 
0.395788 -0.17589 -0.286345 0.586675 0.480206 
0.575609 0.132416 0.0635202 0.798122 0.5 
-0.687974 0.77395 -0.385307 0.620042 0.5 
0.503213 0.18765 0.0774431 0.610755 0.477832 
-0.864481 -0.228647 0.398571 0.752441 0.5 
-0.15483 0.907274 -0.106461 0.243604 0.20583 
-0.711739 0.751184 -0.291461 0.863212 0.5 
-0.639845 -0.948833 0.194219 0.352362 0.5 
-0.542756 -0.967322 0.234525 0.616295 0.5 
-0.623791 -0.947746 0.396228 0.161121 0.384305 
-0.676872 -0.96026 0.0771155 0.228898 0.5 
-0.24408 -0.960425 0.540791 0.226568 0.5 
-0.614156 -0.875091 0.48634 0.3012 0.5 
-0.608154 0.731181 -0.75576 0.327536 0.418281 
-0.611014 -0.876209 0.405254 0.402713 0.5 
-0.653127 -0.860105 0.0774336 0.22204 0.425033 
-0.625331 -0.877187 0.174774 0.516366 0.5 
-0.51241 -0.834329 0.215025 0.530586 0.5 
-0.914978 0.213396 0.615799 0.559256 0.421054 
-0.143786 -0.427121 0.591429 0.723919 0.5 
-0.920072 0.111783 0.617712 0.600043 0.5 
-0.154513 -0.342647 0.605488 0.683355 0.5 
-0.153264 -0.289385 0.602547 0.614931 0.5 
-0.540449 -0.793337 0.075701 0.254355 0.5 
-0.437304 -0.779516 0.248706 0.654005 0.5 
-0.903601 0.459512 0.456096 0.595515 0.5 
-0.515471 -0.819137 0.368715 0.224658 0.5 
-0.445603 -0.754527 0.384264 0.403221 0.455571 
-0.529717 -0.686638 0.0740028 0.609842 0.5 
-0.100931 -0.164157 -0.293759 0.572357 0.484126 
-0.900678 0.304354 0.602541 0.702767 0.5 
-0.0405178 -0.278484 -0.459975 0.500126 0.449734 
-0.326013 -0.952044 -0.322375 0.176398 0.205782 
-0.360882 -0.956299 -0.219858 0.185544 0.251225 
-0.388416 -0.970076 -0.0906529 0.195728 0.250264 
-0.527365 -0.972736 0.371679 0.149111 0.5 
-0.626488 -0.877573 -0.0320151 0.346306 0.5 
-0.21253 -0.857258 -0.338697 0.416721 0.5 
-0.309996 -0.894298 -0.311637 0.395772 0.5 
-0.336072 -0.857202 -0.212125 0.354294 0.262323 
-0.388 -0.819076 -0.113098 0.233676 0.5 
-0.512771 -0.839552 -0.0637778 0.439109 0.5 
-0.254891 -0.774593 -0.130604 0.143035 0.134512 
-0.502657 -0.662693 -0.0459452 0.475374 0.462024 
-0.140072 -0.770528 -0.29017 0.366688 0.5 
-0.083006 -0.673891 -0.37531 0.389566 0.447391 
-0.145594 -0.715685 -0.288817 0.402567 0.5 
-0.177457 -0.675979 -0.217826 0.44991 0.5 
-0.247384 -0.686222 -0.12647 0.175588 0.5 
-0.617959 -0.609814 -0.0194891 0.168435 0.5 
-0.647816 -0.62268 0.0852576 0.169372 0.256876 
-0.154877 -0.621999 -0.316388 0.512531 0.5 
-0.668889 -0.522579 -0.0778641 0.201496 0.5 
-0.719049 -0.568465 0.0635625 0.165663 0.5 
-0.176012 -0.513027 -0.349544 0.533982 0.5 
-0.228511 -0.538123 -0.22197 0.898248 0.5 
-0.797579 -0.496102 0.0829379 0.400319 0.5 
-0.1094 -0.543966 -0.418649 0.484974 0.464351 
-0.528717 -0.962949 -0.0813176 0.295521 0.5 
-0.775987 -0.472751 -0.0415978 0.15719 0.5 
-0.00518311 0.879485 -0.303794 0.423698 0.5 
-0.805258 -0.370731 -0.0726207 0.3504 0.5 
-0.86832 -0.381156 0.0674697 0.447431 0.5 
-0.190302 -0.374654 -0.367467 0.891815 0.5 
-0.252794 -0.387014 -0.258055 0.961209 0.5 
-0.735869 -0.412728 -0.128591 0.485274 0.5 
-0.138236 -0.365182 -0.441346 0.510197 0.469799 
-0.757438 -0.316768 -0.157496 0.497679 0.5 
-0.907473 -0.315456 0.0965637 0.499586 0.5 
-0.90819 -0.313379 0.212049 0.64356 0.5 
-0.900365 -0.308976 0.308182 0.631233 0.481066 
0.3732 -0.373086 -0.379941 0.712329 0.5 
0.584912 -0.0171954 -0.136722 0.517511 0.443888 
0.468088 -0.269918 -0.311663 0.632965 0.355582 
0.10041 -0.143057 -0.313884 0.531679 0.5 
0.185954 -0.142437 -0.313032 0.627908 0.343724 
0.286155 -0.151614 -0.290312 0.728581 0.328136 
0.484205 -0.673038 -0.320792 0.698389 0.5 
0.07181 -0.376978 -0.472667 0.670336 0.467319 
-0.445348 0.308362 -0.00339334 0.603519 0.5 
0.225801 -0.955672 -0.226481 0.322372 0.5 
0.0747531 -0.955395 -0.219462 0.202681 0.5 
0.186516 -0.920957 -0.303948 0.470893 0.5 
0.51845 -0.964847 0.0803191 0 0 
0.259352 -0.877373 -0.293712 0.618402 0.5 
0.218684 -0.81271 -0.343151 0.674591 0.5 
0.0733563 -0.825843 -0.349973 0.63392 0.5 
-0.0728915 -0.828119 -0.343708 0.655795 0.5 
0.63916 -0.901845 -0.00949894 0.524452 0.5 
0.359617 -0.794141 -0.323216 0.664014 0.5 
0.452332 -0.764148 -0.304104 0.824076 0.5 
0.37476 -0.677788 -0.356768 0.864329 0.5 
0.226902 -0.67517 -0.393422 0.880363 0.5 
0.0742728 -0.676153 -0.42098 0.66478 0.462479 
-0.37603 -0.67977 -0.122055 0.994534 0.5 
0.0337356 -0.607505 -0.451951 0.712311 0.5 
0.489205 -0.518333 -0.330294 0.688805 0.5 
0.375682 -0.528068 -0.378487 0.619616 0.5 
0.226185 -0.527768 -0.422375 0.765276 0.5 
0.116636 -0.548537 -0.44149 0.731692 0.5 
0.050665 -0.514601 -0.465216 0.779464 0.5 
-0.0504073 -0.507801 -0.467489 0.560318 0.48002 
-0.357405 -0.616308 -0.150074 0.89465 0.5 
-0.369057 -0.524356 -0.18211 0.834441 0.5 
-0.426262 -0.577788 -0.137923 0.395166 0.47873 
-0.527791 -0.563592 -0.108133 0.472077 0.5 
-0.608931 0.0169189 -0.154008 0.628864 0.5 
-0.522303 -0.494114 -0.183451 0.812569 0.5 
-0.635087 -0.467874 -0.170778 0.489442 0.445103 
0.243549 -0.378407 -0.429758 0.754054 0.5 
0.171855 -0.363185 -0.457554 0.806017 0.5 
-0.0686285 -0.377715 -0.471887 0.767003 0.5 
-0.377944 -0.381503 -0.237728 0.510332 0.5 
0.160817 -0.299625 -0.451936 0.807575 0.5 
-0.077364 -0.951167 -0.225737 0.15273 0.5 
-0.221037 -0.961406 -0.222908 0.616761 0.5 
0.227795 -0.917032 -0.0781073 0.989325 0.5 
0.075169 -0.915941 -0.0747903 0.785916 0.5 
-0.215883 -0.92611 -0.0779216 0.582835 0.5 
-0.0741962 -0.920259 -0.076177 0.761261 0.5 
-0.451339 -0.976945 -0.152866 0 0 
0.373418 -0.969517 0.0485031 0.596223 0.5 
0.221418 -0.946976 0.0772855 0.544311 0.5 
0.0739956 -0.920389 0.0759935 0.72549 0.5 
0.756431 -0.905858 0.131547 0.248144 0.5 
-0.0760501 -0.923531 0.0736597 0.745102 0.5 
0.538695 -0.962834 0.229178 0.393025 0.5 
0.671829 -0.936263 0.227573 0.714418 0.5 
-0.374341 -0.978294 0.0790867 0.776051 0.5 
-0.23948 -0.963318 0.083463 0.126783 0.5 
0.757367 -0.904134 0.201927 0.345857 0.5 
-0.524333 -0.984496 0.0744475 0.773623 0.5 
0.221651 -0.952692 0.228539 0.644619 0.5 
0.0747223 -0.922511 0.225834 0.760259 0.5 
0.342094 -0.971122 0.273588 0.142808 0.5 
-0.218574 -0.971916 0.21832 0.565421 0.5 
-0.0710731 -0.926398 0.225988 0.443462 0.5 
0.367053 -0.957446 0.37435 0.159629 0.5 
0.646593 -0.916391 0.327923 0.818905 0.5 
0.742637 -0.894556 0.296462 0.39598 0.5 
0.231948 -0.921496 0.368791 0.993564 0.5 
0.0747582 -0.918557 0.37731 0.770346 0.5 
-0.222334 -0.960625 0.379687 0.309991 0.5 
-0.0743234 -0.922507 0.375459 0.779863 0.5 
-0.375593 -0.974985 0.402136 0.17805 0.5 
0.224785 -0.952678 0.533279 0 0 
0.0743515 -0.931363 0.519301 0.645407 0.5 
-0.0727421 -0.927815 0.512984 0.627396 0.5 
3 466 460 413 
3 186 55 160 
3 46 187 198 
3 198 355 196 
3 28 160 55 
3 46 20 187 
3 227 19 352 
3 186 160 227 
3 160 19 227 
3 118 423 12 
3 104 70 190 
3 424 45 420 
3 160 358 86 
3 160 86 19 
3 214 186 227 
3 214 227 79 
3 190 165 104 
3 142 165 190 
3 70 68 95 
3 137 3 22 
3 137 49 3 
3 69 4 60 
3 49 70 3 
3 54 212 395 
3 157 62 130 
3 157 130 154 
3 214 487 486 
3 288 15 95 
3 130 62 245 
3 288 95 107 
3 95 60 107 
3 104 165 69 
3 43 14 65 
3 43 65 113 
3 13 14 43 
3 13 180 250 
3 13 250 40 
3 180 29 2 
3 180 2 250 
3 553 561 554 
3 319 431 257 
3 363 545 542 
3 236 39 32 
3 24 199 23 
3 24 23 33 
3 281 282 260 
3 150 303 300 
3 146 82 105 
3 162 90 135 
3 28 154 160 
3 372 162 210 
3 53 18 62 
3 53 62 157 
3 3 70 95 
3 170 208 209 
3 68 69 60 
3 261 262 209 
3 261 209 208 
3 165 103 69 
3 36 6 16 
3 138 261 260 
3 150 98 138 
3 192 283 263 
3 192 263 269 
3 192 284 283 
3 192 283 284 
3 294 295 283 
3 294 283 192 
3 150 300 98 
3 114 169 170 
3 70 104 68 
3 36 16 87 
3 283 284 263 
3 263 284 283 
3 88 137 94 
3 63 17 75 
3 326 377 378 
3 184 185 171 
3 254 31 345 
3 542 366 363 
3 46 80 81 
3 207 208 169 
3 139 185 184 
3 259 243 242 
3 254 345 225 
3 82 194 414 
3 461 468 446 
3 263 283 273 
3 87 17 63 
3 138 268 150 
3 273 283 284 
3 207 169 168 
3 87 75 131 
3 82 414 83 
3 133 205 221 
3 377 381 378 
3 149 91 18 
3 263 264 133 
3 263 133 221 
3 263 273 278 
3 263 278 264 
3 273 284 285 
3 273 285 278 
3 284 283 285 
3 283 286 285 
3 283 295 296 
3 283 296 286 
3 177 178 296 
3 177 296 295 
3 34 38 111 
3 38 34 61 
3 149 18 53 
3 133 173 205 
3 184 171 145 
3 395 212 155 
3 34 152 61 
3 45 179 420 
3 268 138 281 
3 45 420 179 
3 278 285 286 
3 278 286 264 
3 482 530 521 
3 398 231 246 
3 168 114 125 
3 377 337 338 
3 259 260 243 
3 87 63 75 
3 165 143 24 
3 205 411 203 
3 422 346 202 
3 173 174 122 
3 173 122 109 
3 133 206 174 
3 133 174 173 
3 133 264 265 
3 133 265 206 
3 264 286 287 
3 264 287 265 
3 286 296 297 
3 286 297 287 
3 178 161 297 
3 178 297 296 
3 143 142 161 
3 143 161 178 
3 138 98 261 
3 52 57 44 
3 52 44 34 
3 260 262 261 
3 88 49 137 
3 302 88 94 
3 45 424 420 
3 242 208 207 
3 104 69 68 
3 179 420 395 
3 45 420 179 
3 42 154 28 
3 179 395 90 
3 174 206 222 
3 174 222 175 
3 297 298 290 
3 297 290 287 
3 297 161 7 
3 297 7 298 
3 142 190 7 
3 142 7 161 
3 85 163 303 
3 64 12 118 
3 168 169 114 
3 40 14 13 
3 281 138 282 
3 251 182 275 
3 474 480 325 
3 243 261 208 
3 243 260 261 
3 242 243 208 
3 27 157 154 
3 22 3 95 
3 45 9 181 
3 22 95 15 
3 205 203 444 
3 134 151 447 
3 205 444 445 
3 302 94 277 
3 27 154 42 
3 85 22 204 
3 181 80 45 
3 175 176 124 
3 175 124 167 
3 280 131 75 
3 280 75 144 
3 216 77 272 
3 325 488 346 
3 300 301 289 
3 300 289 98 
3 85 127 163 
3 176 168 125 
3 176 125 124 
3 216 258 207 
3 216 207 235 
3 216 272 259 
3 216 259 258 
3 77 268 259 
3 77 259 272 
3 298 7 88 
3 298 88 302 
3 7 190 88 
3 112 251 254 
3 380 280 144 
3 380 144 407 
3 223 139 184 
3 114 170 115 
3 268 281 259 
3 88 70 49 
3 281 260 259 
3 282 138 260 
3 181 194 82 
3 258 259 207 
3 281 268 259 
3 366 383 384 
3 259 268 281 
3 94 137 153 
3 169 208 170 
3 259 242 207 
3 331 158 17 
3 150 277 303 
3 94 153 85 
3 17 48 75 
3 381 391 384 
3 366 384 379 
3 383 381 384 
3 185 139 228 
3 185 228 337 
3 171 329 326 
3 378 381 366 
3 303 94 85 
3 145 336 184 
3 289 348 274 
3 171 185 337 
3 40 250 14 
3 250 129 14 
3 343 349 350 
3 72 5 127 
3 127 56 163 
3 127 5 56 
3 14 339 65 
3 349 317 37 
3 349 37 350 
3 343 350 223 
3 65 339 306 
3 14 332 339 
3 14 129 332 
3 306 339 177 
3 339 332 66 
3 339 66 177 
3 129 66 332 
3 112 254 251 
3 250 66 129 
3 326 378 366 
3 294 306 295 
3 250 311 66 
3 2 96 311 
3 2 311 250 
3 465 473 466 
3 184 343 223 
3 295 306 177 
3 115 126 310 
3 326 329 377 
3 51 112 251 
3 64 164 31 
3 64 118 164 
3 106 324 315 
3 106 315 74 
3 341 342 335 
3 324 106 109 
3 120 109 106 
3 341 335 334 
3 316 334 335 
3 311 96 116 
3 311 116 35 
3 315 324 109 
3 345 12 225 
3 315 109 76 
3 126 316 97 
3 126 97 310 
3 311 35 66 
3 31 254 275 
3 35 340 66 
3 274 98 289 
3 177 353 178 
3 177 66 313 
3 177 313 178 
3 66 340 313 
3 318 316 145 
3 178 353 143 
3 353 177 143 
3 177 178 143 
3 340 24 313 
3 22 153 137 
3 112 254 32 
3 163 317 50 
3 58 351 139 
3 112 31 254 
3 289 301 163 
3 178 313 24 
3 178 24 143 
3 35 199 24 
3 35 24 340 
3 316 328 145 
3 360 359 361 
3 341 274 342 
3 164 314 275 
3 164 275 31 
3 209 334 170 
3 188 403 402 
3 50 349 348 
3 338 399 381 
3 128 319 257 
3 348 349 342 
3 176 235 168 
3 32 12 64 
3 338 344 399 
3 32 64 112 
3 261 262 260 
3 322 327 236 
3 37 67 229 
3 11 87 131 
3 44 321 327 
3 44 327 322 
3 262 341 209 
3 11 280 58 
3 44 32 321 
3 139 229 58 
3 11 131 280 
3 209 341 334 
3 50 317 349 
3 274 348 342 
3 262 261 98 
3 342 349 343 
3 10 37 317 
3 262 274 341 
3 336 343 184 
3 335 336 328 
3 39 236 327 
3 321 39 327 
3 335 328 316 
3 32 57 12 
3 337 377 329 
3 163 56 317 
3 334 316 126 
3 321 32 112 
3 61 152 23 
3 444 109 120 
3 335 343 336 
3 124 125 308 
3 124 308 307 
3 356 390 385 
3 12 32 225 
3 277 94 303 
3 39 321 112 
3 112 64 31 
3 487 202 488 
3 462 413 455 
3 462 455 505 
3 300 163 301 
3 274 262 98 
3 11 36 87 
3 377 338 381 
3 56 10 317 
3 152 34 322 
3 289 50 348 
3 335 342 343 
3 322 34 44 
3 223 350 229 
3 223 229 139 
3 1 23 292 
3 37 229 350 
3 5 10 56 
3 16 17 87 
3 170 334 126 
3 84 215 45 
3 125 114 59 
3 125 59 308 
3 254 31 275 
3 171 337 329 
3 254 275 251 
3 170 126 115 
3 366 381 383 
3 328 336 145 
3 289 163 50 
3 44 57 32 
3 488 202 346 
3 27 78 53 
3 27 53 157 
3 160 154 358 
3 149 21 91 
3 565 307 564 
3 457 413 458 
3 18 245 62 
3 359 501 363 
3 254 251 275 
3 210 159 372 
3 159 224 253 
3 159 253 372 
3 224 179 253 
3 144 48 188 
3 246 201 134 
3 203 220 221 
3 48 320 188 
3 9 224 159 
3 181 9 159 
3 188 320 403 
3 389 393 374 
3 239 134 447 
3 189 385 266 
3 0 1 195 
3 432 444 120 
3 374 393 394 
3 130 245 47 
3 144 75 48 
3 372 253 162 
3 489 491 333 
3 253 90 395 
3 355 78 196 
3 316 318 362 
3 316 362 97 
3 355 149 53 
3 407 188 402 
3 407 144 188 
3 233 493 492 
3 393 404 394 
3 359 364 361 
3 364 374 361 
3 444 432 453 
3 393 403 404 
3 359 369 374 
3 227 352 202 
3 369 368 389 
3 228 338 337 
3 90 253 257 
3 90 257 135 
3 369 389 374 
3 359 374 364 
3 253 370 128 
3 253 128 257 
3 370 395 155 
3 370 155 128 
3 487 79 202 
3 368 393 389 
3 368 392 393 
3 355 53 78 
3 37 10 67 
3 67 10 237 
3 292 23 152 
3 392 402 403 
3 325 487 488 
3 48 183 320 
3 228 344 338 
3 392 403 393 
3 229 67 11 
3 229 11 58 
3 67 237 36 
3 67 36 11 
3 237 10 6 
3 237 6 36 
3 499 537 535 
3 199 35 23 
3 35 256 23 
3 35 116 38 
3 35 38 256 
3 181 82 81 
3 227 202 79 
3 256 38 61 
3 256 61 23 
3 109 445 173 
3 181 210 194 
3 445 205 173 
3 128 110 319 
3 228 139 344 
3 29 21 71 
3 139 351 344 
3 456 450 455 
3 182 275 305 
3 172 80 81 
3 80 46 81 
3 399 344 380 
3 344 351 380 
3 57 52 12 
3 38 105 111 
3 351 58 280 
3 2 29 71 
3 253 395 370 
3 21 149 187 
3 367 363 366 
3 143 165 142 
3 39 112 32 
3 435 442 444 
3 33 23 1 
3 442 445 444 
3 45 215 420 
3 46 198 81 
3 2 71 116 
3 71 21 20 
3 105 38 20 
3 103 33 1 
3 103 1 0 
3 426 444 453 
3 426 435 444 
3 105 20 46 
3 305 275 314 
3 411 445 442 
3 24 33 103 
3 92 54 420 
3 542 545 548 
3 411 205 445 
3 10 5 166 
3 10 166 6 
3 165 24 103 
3 6 166 16 
3 80 181 81 
3 116 71 20 
3 116 20 38 
3 166 331 16 
3 187 149 198 
3 474 325 191 
3 22 85 153 
3 493 241 101 
3 45 179 224 
3 95 68 60 
3 127 85 204 
3 4 69 103 
3 4 103 0 
3 5 72 166 
3 72 8 166 
3 239 246 134 
3 96 2 116 
3 420 54 395 
3 482 201 530 
3 290 298 77 
3 166 8 419 
3 166 419 331 
3 72 26 30 
3 72 30 8 
3 206 265 222 
3 8 30 419 
3 112 51 251 
3 30 421 419 
3 72 204 26 
3 204 22 26 
3 427 453 432 
3 92 420 215 
3 118 12 423 
3 190 70 88 
3 17 16 331 
3 26 22 30 
3 387 141 421 
3 30 22 15 
3 21 187 20 
3 203 205 444 
3 421 30 15 
3 72 127 204 
3 421 15 288 
3 207 168 235 
3 562 429 560 
3 302 140 268 
3 302 268 140 
3 429 122 123 
3 461 467 468 
3 120 74 240 
3 298 77 290 
3 215 417 92 
3 287 290 77 
3 84 80 270 
3 159 210 181 
3 265 216 437 
3 235 176 175 
3 136 307 123 
3 120 106 74 
3 140 268 77 
3 439 77 216 
3 123 122 136 
3 219 217 323 
3 135 257 431 
3 52 73 12 
3 427 430 409 
3 136 124 307 
3 9 45 224 
3 437 216 235 
3 359 363 506 
3 122 167 136 
3 45 80 84 
3 109 122 429 
3 270 80 172 
3 294 192 119 
3 439 440 77 
3 219 323 117 
3 179 90 253 
3 251 275 182 
3 109 429 76 
3 265 440 439 
3 77 440 287 
3 554 561 551 
3 193 203 411 
3 219 304 309 
3 454 433 388 
3 151 134 148 
3 560 429 565 
3 245 448 436 
3 244 180 448 
3 245 244 448 
3 54 92 417 
3 238 83 200 
3 222 235 175 
3 265 437 222 
3 175 167 122 
3 269 119 192 
3 82 83 156 
3 265 287 440 
3 265 439 216 
3 271 294 119 
3 448 180 13 
3 202 352 19 
3 436 43 113 
3 433 425 428 
3 202 19 422 
3 436 113 438 
3 219 117 304 
3 198 172 81 
3 433 434 425 
3 221 205 203 
3 238 156 83 
3 77 298 140 
3 193 411 442 
3 437 235 222 
3 436 13 43 
3 436 448 13 
3 433 435 434 
3 174 175 122 
3 193 442 435 
3 77 298 290 
3 302 140 298 
3 244 91 443 
3 91 21 443 
3 434 435 425 
3 409 430 120 
3 401 119 269 
3 244 443 29 
3 443 21 29 
3 435 426 425 
3 409 120 240 
3 234 524 323 
3 149 355 198 
3 244 29 180 
3 136 167 124 
3 475 484 481 
3 422 119 401 
3 422 401 346 
3 445 444 205 
3 441 446 435 
3 234 323 217 
3 19 271 119 
3 19 119 422 
3 446 193 435 
3 47 245 436 
3 47 436 438 
3 319 110 431 
3 110 279 431 
3 494 102 101 
3 241 418 494 
3 494 418 102 
3 241 333 418 
3 244 18 91 
3 400 135 90 
3 400 90 162 
3 155 395 90 
3 155 90 135 
3 155 54 395 
3 212 54 155 
3 395 54 90 
3 54 417 90 
3 291 347 405 
3 90 179 210 
3 90 210 162 
3 417 215 179 
3 417 179 90 
3 484 151 481 
3 291 354 330 
3 481 151 148 
3 32 254 225 
3 475 472 463 
3 472 469 463 
3 148 134 481 
3 450 456 457 
3 450 457 451 
3 456 455 457 
3 455 413 457 
3 463 465 464 
3 469 465 463 
3 472 473 465 
3 472 465 469 
3 481 482 473 
3 481 473 472 
3 210 412 194 
3 179 215 210 
3 463 462 505 
3 412 210 194 
3 215 84 194 
3 215 194 210 
3 464 465 413 
3 464 413 462 
3 84 412 194 
3 18 244 245 
3 445 109 444 
3 111 105 415 
3 371 292 105 
3 432 120 430 
3 322 236 152 
3 213 183 93 
3 562 76 429 
3 141 419 421 
3 532 499 386 
3 407 399 380 
3 31 164 345 
3 451 457 458 
3 304 479 483 
3 485 479 304 
3 416 25 479 
3 194 81 83 
3 412 172 81 
3 412 81 194 
3 412 84 270 
3 412 270 172 
3 497 292 371 
3 345 164 118 
3 345 118 12 
3 414 194 83 
3 454 441 433 
3 480 487 325 
3 430 427 432 
3 73 132 12 
3 81 172 83 
3 73 52 132 
3 310 312 115 
3 492 493 248 
3 172 100 83 
3 405 276 107 
3 151 233 248 
3 151 248 239 
3 486 487 480 
3 214 79 487 
3 404 320 397 
3 459 461 446 
3 459 446 441 
3 470 471 468 
3 477 474 471 
3 477 471 470 
3 479 480 474 
3 479 474 477 
3 25 267 480 
3 25 480 479 
3 25 211 55 
3 25 55 267 
3 211 99 28 
3 211 28 55 
3 373 356 385 
3 230 27 42 
3 230 42 99 
3 230 410 27 
3 410 230 196 
3 100 172 198 
3 100 198 196 
3 415 132 34 
3 415 34 111 
3 471 474 191 
3 410 196 27 
3 267 214 486 
3 267 486 480 
3 27 196 78 
3 267 55 214 
3 214 55 186 
3 252 279 128 
3 128 279 110 
3 234 89 218 
3 402 384 407 
3 140 150 268 
3 392 384 402 
3 276 141 387 
3 99 42 28 
3 236 146 152 
3 356 239 248 
3 356 248 382 
3 288 276 421 
3 331 141 158 
3 489 406 491 
3 266 4 0 
3 418 333 491 
3 266 60 4 
3 128 155 252 
3 147 183 213 
3 291 330 347 
3 213 93 17 
3 330 396 141 
3 390 108 266 
3 382 101 354 
3 213 17 490 
3 490 17 158 
3 490 158 141 
3 330 213 396 
3 233 492 248 
3 330 102 213 
3 108 405 60 
3 253 90 162 
3 46 81 105 
3 81 82 105 
3 382 248 101 
3 266 108 60 
3 407 381 399 
3 266 0 121 
3 382 354 291 
3 108 390 291 
3 108 291 405 
3 390 382 291 
3 276 387 421 
3 545 145 557 
3 189 266 121 
3 82 415 105 
3 218 524 234 
3 373 385 189 
3 459 441 454 
3 135 431 279 
3 183 17 93 
3 447 151 239 
3 233 241 493 
3 151 232 233 
3 330 141 347 
3 532 537 499 
3 151 449 232 
3 150 140 277 
3 213 490 141 
3 132 32 12 
3 156 195 497 
3 238 195 156 
3 371 156 497 
3 276 288 107 
3 195 292 497 
3 89 195 238 
3 89 249 195 
3 89 234 398 
3 89 398 249 
3 413 460 458 
3 195 1 292 
3 385 390 266 
3 493 101 248 
3 183 48 17 
3 532 386 408 
3 246 239 356 
3 162 135 400 
3 356 382 390 
3 418 491 147 
3 347 276 405 
3 384 381 407 
3 403 320 404 
3 331 419 141 
3 276 347 141 
3 213 141 396 
3 384 391 381 
3 195 249 189 
3 195 189 121 
3 398 373 189 
3 398 189 249 
3 376 455 450 
3 241 494 101 
3 405 107 60 
3 280 380 351 
3 406 397 147 
3 183 147 397 
3 373 246 356 
3 357 305 314 
3 357 314 164 
3 302 277 140 
3 406 147 491 
3 218 230 99 
3 132 52 34 
3 416 479 485 
3 408 505 376 
3 472 475 481 
3 398 234 217 
3 525 304 526 
3 236 32 132 
3 470 304 483 
3 379 368 367 
3 384 392 368 
3 384 368 379 
3 388 433 428 
3 121 0 195 
3 368 506 363 
3 246 231 201 
3 530 525 521 
3 231 217 219 
3 231 219 201 
3 201 219 309 
3 201 309 530 
3 530 309 525 
3 553 560 561 
3 83 230 200 
3 521 525 523 
3 416 485 304 
3 521 523 522 
3 247 211 25 
3 368 369 359 
3 368 359 506 
3 183 397 320 
3 247 25 117 
3 512 521 522 
3 525 526 470 
3 512 522 523 
3 512 523 461 
3 404 397 406 
3 404 406 514 
3 323 247 117 
3 458 512 461 
3 404 514 495 
3 375 361 374 
3 521 520 512 
3 196 230 100 
3 394 495 374 
3 461 523 470 
3 379 367 366 
3 83 100 230 
3 495 508 374 
3 461 459 458 
3 147 102 418 
3 147 213 102 
3 508 507 375 
3 508 375 374 
3 495 509 507 
3 495 507 508 
3 514 515 509 
3 514 509 495 
3 514 406 489 
3 514 489 515 
3 458 476 452 
3 470 483 479 
3 458 459 476 
3 105 292 152 
3 155 135 279 
3 476 459 454 
3 132 82 146 
3 482 521 473 
3 476 454 388 
3 132 415 82 
3 461 470 467 
3 375 502 498 
3 375 498 361 
3 507 503 502 
3 507 502 375 
3 509 510 503 
3 509 503 507 
3 515 516 510 
3 515 510 509 
3 489 527 516 
3 489 516 515 
3 333 241 527 
3 333 527 489 
3 330 354 101 
3 330 101 102 
3 470 479 477 
3 218 211 247 
3 520 521 512 
3 498 502 500 
3 371 82 156 
3 502 503 500 
3 371 105 82 
3 528 527 241 
3 528 241 531 
3 211 218 99 
3 527 528 516 
3 455 376 505 
3 498 386 499 
3 500 386 498 
3 503 504 386 
3 503 386 500 
3 510 511 504 
3 510 504 503 
3 516 517 511 
3 516 511 510 
3 516 518 517 
3 528 496 518 
3 528 518 516 
3 528 531 232 
3 528 232 496 
3 531 241 233 
3 531 233 232 
3 152 146 105 
3 398 217 231 
3 517 518 511 
3 518 513 511 
3 452 451 458 
3 236 132 146 
3 117 25 416 
3 473 521 512 
3 513 518 511 
3 134 482 481 
3 275 182 31 
3 182 478 31 
3 182 305 357 
3 182 357 478 
3 504 505 408 
3 504 408 386 
3 504 511 463 
3 504 463 505 
3 511 518 519 
3 511 519 463 
3 518 496 529 
3 518 529 519 
3 232 449 529 
3 232 529 496 
3 526 304 470 
3 357 164 31 
3 357 31 478 
3 368 363 367 
3 463 519 475 
3 525 309 304 
3 466 512 458 
3 473 512 466 
3 463 464 462 
3 218 200 230 
3 482 134 201 
3 427 426 453 
3 524 218 247 
3 524 247 323 
3 89 200 218 
3 89 238 200 
3 413 465 466 
3 449 151 529 
3 404 495 394 
3 304 117 416 
3 466 458 460 
3 151 484 529 
3 523 525 470 
3 519 529 484 
3 519 484 475 
3 563 312 310 
3 563 59 312 
3 559 565 564 
3 563 308 59 
3 358 154 130 
3 555 310 362 
3 366 548 326 
3 362 310 97 
3 559 564 558 
3 560 565 561 
3 558 564 563 
3 501 544 363 
3 540 551 550 
3 47 86 130 
3 47 197 86 
3 557 171 326 
3 557 145 171 
3 545 557 326 
3 499 534 498 
3 498 360 361 
3 360 540 539 
3 551 561 559 
3 47 113 197 
3 47 438 113 
3 360 539 359 
3 197 271 19 
3 197 19 86 
3 59 115 312 
3 548 545 326 
3 363 544 545 
3 86 358 130 
3 435 433 441 
3 552 558 555 
3 542 548 366 
3 534 541 540 
3 325 255 191 
3 346 255 325 
3 534 360 498 
3 561 565 559 
3 537 543 535 
3 191 226 471 
3 551 559 558 
3 551 558 550 
3 556 145 545 
3 471 226 468 
3 226 41 468 
3 255 226 191 
3 271 197 306 
3 271 306 294 
3 197 113 306 
3 255 299 226 
3 306 113 65 
3 255 346 299 
3 346 401 269 
3 346 269 299 
3 299 269 293 
3 429 123 307 
3 429 307 565 
3 499 535 534 
3 226 365 41 
3 299 365 226 
3 468 41 446 
3 468 467 470 
3 114 115 59 
3 388 428 476 
3 41 193 446 
3 398 246 373 
3 564 308 563 
3 550 558 552 
3 476 428 549 
3 41 365 193 
3 193 365 203 
3 549 428 426 
3 428 425 426 
3 299 220 203 
3 299 203 365 
3 299 293 220 
3 544 362 556 
3 544 556 545 
3 279 252 155 
3 220 293 221 
3 269 221 293 
3 543 554 541 
3 427 453 426 
3 476 549 452 
3 452 549 546 
3 555 362 544 
3 450 451 376 
3 427 409 240 
3 427 240 453 
3 376 451 533 
3 541 551 540 
3 549 426 546 
3 541 554 551 
3 451 452 536 
3 451 536 533 
3 452 546 536 
3 558 563 555 
3 536 546 547 
3 453 240 562 
3 408 376 532 
3 376 533 532 
3 562 240 76 
3 221 269 263 
3 362 145 556 
3 318 145 362 
3 533 536 532 
3 359 539 501 
3 532 536 537 
3 535 541 534 
3 540 360 534 
3 240 74 315 
3 240 315 76 
3 564 307 308 
3 303 163 300 
3 535 543 541 
3 536 543 537 
3 536 547 543 
